<?xml version="1.0" encoding="UTF-8"?>
<svg version="1.1" xmlns="http://www.w3.org/2000/svg" width="8192" height="8192">
<path d="M0 0 C0 842.16 0 1684.32 0 2552 C-576.51 2552.33 -1153.02 2552.66 -1747 2553 C-1745.02 2568.18 -1743.04 2583.36 -1741 2599 C-1737.93586111 2629.64138892 -1735.68522318 2660.25876676 -1734 2691 C-1733.89776123 2692.84537354 -1733.89776123 2692.84537354 -1733.79345703 2694.72802734 C-1732.07569219 2727.04953141 -1731.57680702 2759.63600845 -1732 2792 C-1732.01817425 2793.64534386 -1732.03623156 2795.29068902 -1732.05419922 2796.93603516 C-1733.32884263 2907.32769228 -1743.52489502 3017.47481918 -1769.45300293 3155.27490234 C-1769.80847092 3157.04581676 -1770.16278395 3158.81696354 -1770.51574707 3160.58837891 C-1788.92158026 3252.94501886 -1815.76642442 3343.84460657 -1876 3496 C-1876.29457092 3496.67424011 -1876.58914185 3497.34848022 -1876.89263916 3498.04315186 C-1880.84120307 3507.06856147 -1884.88067506 3516.0512334 -1889 3525 C-1889.29588013 3525.64289978 -1889.59176025 3526.28579956 -1889.89660645 3526.94818115 C-1903.535097 3556.54145507 -1917.69880958 3585.93281081 -1933.56689453 3614.40283203 C-1935.08874876 3617.16083634 -1936.57703463 3619.93499675 -1938.05859375 3622.71484375 C-1945.71942427 3637.0715189 -1953.86727953 3651.08421744 -1962.23144531 3665.03710938 C-1964.14645124 3668.24535232 -1966.03134625 3671.46982481 -1967.90698242 3674.70117188 C-1978.9912042 3693.75488587 -1991.02201889 3712.16804634 -2003.25 3730.5 C-2003.8470575 3731.39524384 -2004.44411499 3732.29048767 -2005.05926514 3733.21286011 C-2020.18492573 3755.87279536 -2035.76537589 3778.12053899 -2052 3800 C-2052.53447754 3800.7204248 -2053.06895508 3801.44084961 -2053.61962891 3802.18310547 C-2060.16638672 3810.99359943 -2066.83815494 3819.69186985 -2073.65429688 3828.29541016 C-2074.98994281 3829.98726065 -2076.31668297 3831.68569842 -2077.640625 3833.38671875 C-2088.41127674 3847.21040635 -2099.62809452 3860.66852889 -2111 3874 C-2111.49242188 3874.57878906 -2111.98484375 3875.15757812 -2112.4921875 3875.75390625 C-2118.23883174 3882.5069425 -2124.02988961 3889.20530021 -2129.98828125 3895.7734375 C-2131.84734669 3897.83104391 -2133.67928358 3899.90846763 -2135.5 3902 C-2143.17816961 3910.80524038 -2151.07773463 3919.41463226 -2159 3928 C-2159.76398102 3928.82933044 -2159.76398102 3928.82933044 -2160.543396 3929.67541504 C-2170.83722274 3940.82622987 -2181.46652423 3951.62208338 -2192.20922852 3962.33959961 C-2194.96162595 3965.08657845 -2197.70855896 3967.83894203 -2200.45507812 3970.59179688 C-2202.2288457 3972.36490448 -2204.002923 3974.13770231 -2205.77734375 3975.91015625 C-2206.99006203 3977.12591087 -2206.99006203 3977.12591087 -2208.22727966 3978.3662262 C-2212.43496711 3982.55672943 -2216.71132145 3986.59489462 -2221.23243713 3990.44651794 C-2223.06930561 3992.06091156 -2224.78824538 3993.75419384 -2226.5 3995.5 C-2229.46735323 3998.51413582 -2232.57345292 4001.29917333 -2235.77734375 4004.05859375 C-2238.32976883 4006.28804061 -2240.81887514 4008.58001382 -2243.3125 4010.875 C-2247.82903837 4014.99906676 -2252.49133016 4018.87936865 -2257.25 4022.71875 C-2260.08099578 4025.06718968 -2262.79383598 4027.50909902 -2265.5 4030 C-2270.82631088 4034.89506128 -2276.36940695 4039.4617902 -2282 4044 C-2283.77151295 4045.4575077 -2285.54234017 4046.91584922 -2287.3125 4048.375 C-2293.15184819 4053.15039916 -2299.07479242 4057.81398834 -2305.02099609 4062.45507812 C-2306.38921408 4063.52318612 -2307.756679 4064.59225921 -2309.12353516 4065.66210938 C-2344.79894409 4093.58405225 -2381.77295911 4119.68036721 -2420 4144 C-2420.85400391 4144.54414551 -2421.70800781 4145.08829102 -2422.58789062 4145.64892578 C-2462.81788964 4171.21439556 -2504.56987352 4194.31075902 -2547 4216 C-2547.58974609 4216.3020636 -2548.17949219 4216.6041272 -2548.78710938 4216.91534424 C-2568.23746136 4226.87480616 -2587.93611622 4236.16322786 -2607.8939209 4245.05926514 C-2609.99898272 4245.99954561 -2612.10187705 4246.94450792 -2614.20410156 4247.89111328 C-2635.57848471 4257.51297324 -2657.15724554 4266.49604222 -2679 4275 C-2680.21365234 4275.47356934 -2681.42730469 4275.94713867 -2682.67773438 4276.43505859 C-2779.38382092 4314.01745472 -2879.41740536 4342.14059016 -3176 4387 C-3176.99098694 4387.07778687 -3177.98197388 4387.15557373 -3179.00299072 4387.23571777 C-3193.32504584 4388.3497713 -3207.65381778 4389.26053321 -3222 4390 C-3223.51463837 4390.07831055 -3223.51463837 4390.07831055 -3225.05987549 4390.15820312 C-3328.61564345 4395.41519113 -3432.54219079 4391.42277466 -4130 4204 C-4131.03151184 4203.49246185 -4131.03151184 4203.49246185 -4132.0838623 4202.97467041 C-4148.68497424 4194.80518853 -4165.14816433 4186.46237375 -4181.32519531 4177.47412109 C-4184.15139356 4175.91656496 -4186.99124752 4174.38678743 -4189.8359375 4172.86328125 C-4202.97955817 4165.82209403 -4215.91366331 4158.48660533 -4228.75439453 4150.90820312 C-4232.22343327 4148.86863589 -4235.70240481 4146.84684544 -4239.18359375 4144.828125 C-4253.12871727 4136.73126455 -4266.88839855 4128.41647745 -4280.42871094 4119.65332031 C-4282.92294588 4118.04954524 -4285.43055083 4116.46979036 -4287.9453125 4114.8984375 C-4300.07016888 4107.30489209 -4311.95822656 4099.38204834 -4323.8125 4091.375 C-4324.97557175 4090.59024796 -4324.97557175 4090.59024796 -4326.16213989 4089.78964233 C-4340.2251085 4080.29299097 -4354.13171543 4070.57923207 -4367.875 4060.625 C-4368.60783203 4060.09447021 -4369.34066406 4059.56394043 -4370.09570312 4059.01733398 C-4372.3989093 4057.34731415 -4374.69992364 4055.67432743 -4377 4054 C-4377.77633789 4053.43522949 -4378.55267578 4052.87045898 -4379.35253906 4052.28857422 C-4391.0773051 4043.74459107 -4402.59371648 4034.96380159 -4414 4026 C-4415.29539479 4024.98544961 -4416.59096048 4023.97111738 -4417.88671875 4022.95703125 C-4424.62442224 4017.67956665 -4431.33817412 4012.3730516 -4438 4007 C-4438.58507324 4006.52836426 -4439.17014648 4006.05672852 -4439.77294922 4005.57080078 C-4448.4030263 3998.6072812 -4456.95456006 3991.56410484 -4465.39257812 3984.36914062 C-4468.2352924 3981.94782507 -4471.08680381 3979.53690735 -4473.9375 3977.125 C-4474.45723389 3976.68462402 -4474.97696777 3976.24424805 -4475.51245117 3975.79052734 C-4478.99384338 3972.84270548 -4482.49258833 3969.91674472 -4486 3967 C-4485.67 3966.34 -4485.34 3965.68 -4485 3965 C-4484.25057129 3965.36013184 -4483.50114258 3965.72026367 -4482.72900391 3966.09130859 C-4431.69465268 3990.5243586 -4379.12452812 4011.57527669 -4326 4031 C-4324.74437256 4031.45925873 -4324.74437256 4031.45925873 -4323.46337891 4031.92779541 C-4233.52041908 4064.78050484 -4141.5781729 4091.62158889 -3690.24731445 4158.50268555 C-3687.4336621 4158.5625817 -3684.62016459 4158.62773569 -3681.80664062 4158.69335938 C-3582.88064565 4160.91396198 -3483.30133804 4152.83509855 -3121 4043 C-3119.98856934 4042.51160645 -3118.97713867 4042.02321289 -3117.93505859 4041.52001953 C-3104.72588076 4035.10521088 -3091.83034436 4028.13813419 -3079 4021 C-3078.08379883 4020.49098145 -3077.16759766 4019.98196289 -3076.22363281 4019.45751953 C-3062.6966728 4011.92378732 -3049.34903499 4004.10629408 -3036.046875 3996.18359375 C-3031.23727879 3993.31938661 -3026.41377276 3990.48015223 -3021.578125 3987.66015625 C-3020.96190781 3987.30075455 -3020.34569061 3986.94135284 -3019.71080017 3986.57106018 C-3019.09523758 3986.21205124 -3018.47967499 3985.8530423 -3017.84545898 3985.4831543 C-3005.69906182 3978.39860198 -2993.66413375 3971.16393913 -2981.74169922 3963.70703125 C-2977.59005555 3961.12214322 -2973.42016973 3958.56717098 -2969.25170898 3956.00952148 C-2958.23753601 3949.25098732 -2947.26393749 3942.43500586 -2936.36035156 3935.49951172 C-2933.89652472 3933.93426302 -2931.42895837 3932.37503247 -2928.9609375 3930.81640625 C-2886.02425629 3903.65538628 -2843.52436122 3875.51497246 -2802.421875 3845.64916992 C-2797.50042873 3842.07391656 -2792.54253579 3838.55556193 -2787.5625 3835.0625 C-2771.92148827 3824.06270579 -2756.67802931 3812.53700265 -2741.49853516 3800.91210938 C-2739.13030641 3799.09972247 -2736.75914891 3797.29125718 -2734.38671875 3795.484375 C-2726.09860382 3789.16834579 -2717.86548956 3782.78872317 -2709.68847656 3776.32958984 C-2708.0023639 3775.00186145 -2706.31073218 3773.681513 -2704.6171875 3772.36328125 C-2695.92041763 3765.58477033 -2687.3996768 3758.60632217 -2678.90673828 3751.57470703 C-2676.36440925 3749.47508831 -2673.80755092 3747.39353488 -2671.25 3745.3125 C-2666.73361275 3741.62411708 -2662.28071667 3737.86536705 -2657.83935547 3734.08740234 C-2654.38801897 3731.15679021 -2650.89754846 3728.28263529 -2647.375 3725.4375 C-2642.66426596 3721.60746841 -2638.19514882 3717.56125836 -2633.73046875 3713.44921875 C-2631.15540117 3711.13939418 -2628.51745637 3708.96756987 -2625.8125 3706.8125 C-2620.22616747 3702.30972335 -2615.0293788 3697.43633217 -2609.83325195 3692.49145508 C-2605.9485368 3688.79850523 -2601.99251276 3685.21915051 -2597.94458008 3681.70605469 C-2594.87929058 3679.01675864 -2591.90831902 3676.23026771 -2588.9375 3673.4375 C-2587.78002203 3672.35278549 -2586.62246511 3671.26815522 -2585.46484375 3670.18359375 C-2584.78921387 3669.54808594 -2584.11358398 3668.91257813 -2583.41748047 3668.2578125 C-2581.63323525 3666.59141179 -2579.840897 3664.93674712 -2578.03955078 3663.2890625 C-2566.47857824 3652.6675065 -2555.40510862 3641.55865449 -2544.31787109 3630.44824219 C-2541.53675989 3627.66138509 -2538.75111245 3624.87911196 -2535.9641571 3622.09810066 C-2533.78659217 3619.9241688 -2531.61143823 3617.74783709 -2529.4369812 3615.57079697 C-2528.41080748 3614.54396413 -2527.38391267 3613.51785133 -2526.35623169 3612.49252701 C-2521.22896222 3607.37446047 -2516.17916569 3602.23388758 -2511.49072266 3596.70480347 C-2509.90035938 3594.88605012 -2508.22469499 3593.19120546 -2506.5 3591.5 C-2503.52942594 3588.57532885 -2500.79270881 3585.51380439 -2498.07421875 3582.35546875 C-2495.98557243 3579.98361615 -2493.84451895 3577.67094525 -2491.68774414 3575.36132812 C-2486.64245955 3569.95741137 -2481.84212794 3564.44777668 -2477.2109375 3558.6796875 C-2474.8906505 3555.86746685 -2472.46928866 3553.18202737 -2470 3550.5 C-2465.58118081 3545.68809567 -2461.42766238 3540.71730367 -2457.328125 3535.6328125 C-2455.82568262 3533.78569216 -2454.30483137 3531.95472155 -2452.78125 3530.125 C-2445.74953732 3521.67095465 -2438.93053329 3513.09462467 -2432.29296875 3504.328125 C-2429.43831841 3500.5608451 -2426.53381445 3496.83488656 -2423.6171875 3493.11547852 C-2417.65916765 3485.51239394 -2411.87250837 3477.83025438 -2406.33984375 3469.91259766 C-2404.87021228 3467.81473087 -2403.38856497 3465.72564122 -2401.90625 3463.63671875 C-2378.49615689 3430.54475794 -2356.81576418 3396.36420867 -2337 3361 C-2336.52046875 3360.14680176 -2336.0409375 3359.29360352 -2335.546875 3358.41455078 C-2294.34775762 3284.75174716 -2263.42674613 3205.85686294 -2222.625 3038 C-2222.47341431 3037.17137451 -2222.32182861 3036.34274902 -2222.16564941 3035.48901367 C-2221.22978614 3030.33078133 -2220.35253117 3025.16480786 -2219.50314331 3019.9916687 C-2219.15719775 3017.93469114 -2218.79746923 3015.87999915 -2218.42630005 3013.8274231 C-2213.44740016 2986.26472421 -2211.89687361 2958.42108575 -2210.08375883 2930.50844252 C-2209.5410306 2922.16184192 -2208.9771585 2913.81664766 -2208.40723968 2905.47186279 C-2207.98565426 2899.26334849 -2207.57218373 2893.05498982 -2207.20573659 2886.84295389 C-2206.25849989 2870.80405911 -2205.13415769 2854.80872105 -2203.49011591 2838.82449168 C-2197.39982231 2779.57106504 -2196.37369877 2723.34912592 -2202.87133789 2664.18383789 C-2203.03785778 2662.65952889 -2203.20427997 2661.13520921 -2203.37060553 2659.61087899 C-2204.22031047 2651.83114183 -2205.07763849 2644.05224981 -2205.9378258 2636.27366537 C-2206.02450602 2635.48949534 -2206.11118625 2634.70532532 -2206.20049315 2633.89739256 C-2206.64245745 2629.90126123 -2207.08590395 2625.90530215 -2207.53172724 2621.90959943 C-2215.26651707 2552.48106203 -2219.53353093 2482.70751005 -2222.92190963 2412.9463018 C-2223.06251492 2410.06219404 -2223.2051186 2407.17819079 -2223.34814215 2404.29420203 C-2228.0332444 2309.45759686 -2229.70473305 2213.07456863 -2090.69436671 1895.50213994 C-2056.50152084 1857.77255601 -2019.51926188 1823.06231746 -1981.45362946 1789.29642542 C-1979.49615093 1787.5590838 -1977.54045008 1785.81976263 -1975.58528167 1784.07982188 C-1913.52576457 1728.86246658 -1849.42531958 1676.53506491 -1769.88257599 1618.84331608 C-1769.19080779 1618.34500535 -1768.49903958 1617.84669463 -1767.78630871 1617.33328358 C-1763.1184372 1614 -1763.1184372 1614 -1762 1614 C-1762 1775.37 -1762 1936.74 -1762 2103 C-1622.74 2103 -1483.48 2103 -1340 2103 C-1333.88544897 2028.74425237 -1333.88544897 2028.74425237 -1329.59008789 1954.40625 C-1329.51077004 1952.58681428 -1329.51077004 1952.58681428 -1329.42984982 1950.73062229 C-1328.64158373 1932.54565684 -1327.96697163 1914.35794782 -1327.37732536 1896.16549873 C-1327.25037021 1892.26138477 -1327.11973211 1888.35740463 -1326.98901892 1884.45341492 C-1320.04135009 1714.01185536 -1320.04135009 1714.01185536 -1402.34805298 1562.34503174 C-1415.78452909 1548.18425844 -1430.25707236 1535.2170484 -1445.15060878 1522.61753631 C-1447.06934557 1520.99420837 -1448.9842933 1519.36649393 -1450.89887428 1517.7382679 C-1483.23724598 1490.28746176 -1516.97961816 1465.42479134 -1553 1443 C-1547.76258505 1436.65371726 -1542.01036942 1430.87067424 -1536.1913023 1425.06546116 C-1535.08439875 1423.95751352 -1533.97771423 1422.84934703 -1532.87122807 1421.74098256 C-1529.82866406 1418.69452554 -1526.78299727 1415.65118716 -1523.7368156 1412.60834805 C-1520.42394195 1409.29801064 -1517.11396727 1405.98477669 -1513.80362207 1402.67191118 C-1508.00109001 1396.86576588 -1502.19669761 1391.06148557 -1496.39108467 1385.25842094 C-1487.75832177 1376.62943705 -1479.12841455 1367.99760141 -1470.49907061 1359.36519858 C-1455.0896008 1343.95045992 -1439.67726728 1328.53858704 -1424.26371939 1313.12792627 C-1410.77897917 1299.64569957 -1397.29516624 1286.16254632 -1383.81228065 1272.67846489 C-1382.91864454 1271.78475239 -1382.02500843 1270.8910399 -1381.10429244 1269.97024521 C-1377.47698627 1266.34262771 -1373.84968363 1262.71500668 -1370.22238682 1259.08737982 C-1344.90502401 1233.76774086 -1319.58672355 1208.44903987 -1294.26635265 1183.1324091 C-1293.5505336 1182.41669542 -1293.5505336 1182.41669542 -1292.82025356 1181.68652288 C-1285.07042006 1173.93783435 -1277.32054931 1166.18918305 -1269.57067542 1158.44053491 C-1238.81784211 1127.69256041 -1208.06755429 1096.94204258 -1177.31958008 1066.18920898 C-1169.56771173 1058.4361195 -1161.81583833 1050.68303507 -1154.06392956 1042.929986 C-1153.34800725 1042.21395802 -1153.34800725 1042.21395802 -1152.61762187 1041.48346484 C-1126.87230884 1015.73437771 -1101.12469461 989.98759193 -1075.37632257 964.24156374 C-1071.75709203 960.62265393 -1068.13786544 957.00374018 -1064.51864052 953.38482475 C-1063.62745488 952.4937182 -1062.73626925 951.60261164 -1061.81807799 950.68450185 C-1048.33559847 937.20316181 -1034.85435709 923.72058448 -1021.37370872 910.23741341 C-1006.05674711 894.91759979 -990.73801462 879.59955944 -975.41690686 864.28389228 C-966.83274879 855.7026816 -958.24998469 847.12008215 -949.66917949 838.53551874 C-943.94891024 832.81301951 -938.22684785 827.09231762 -932.5032768 821.37312082 C-929.23480816 818.10704776 -925.96716145 814.84016314 -922.70167258 811.57111061 C-919.7381106 808.60434721 -916.77230718 805.63984493 -913.80460475 802.67722345 C-912.7312933 801.60492921 -911.65884068 800.53177456 -910.58729902 799.45771177 C-909.14483546 798.0120923 -907.69905066 796.56978901 -906.25305337 795.1277042 C-905.44969176 794.32441036 -904.64633016 793.52111652 -903.81862427 792.69348044 C-902 791 -902 791 -901 791 C-901 1226.27 -901 1661.54 -901 2110 C-764.38 2110 -627.76 2110 -487 2110 C-484.51850575 2016.36352464 -484.51850575 2016.36352464 -482.23275013 1922.72211258 C-482.17819593 1920.35090555 -482.12363379 1917.97969873 -482.06893043 1915.60849513 C-480.78618661 1860.00023513 -479.77951927 1804.39071175 -478.98675537 1748.77337646 C-478.96084704 1746.96093028 -478.93493851 1745.1484841 -478.90902977 1743.33603792 C-478.36551836 1705.25264008 -477.86299709 1667.16878928 -477.40752749 1629.08423792 C-477.17852565 1609.9396609 -476.94168739 1590.79518713 -476.69742347 1571.65079872 C-476.66063363 1568.76379298 -476.62406786 1565.87678446 -476.5875114 1562.98977576 C-476.02573072 1518.77884306 -475.30091593 1474.57843493 -474.07818604 1430.38037109 C-474.05210444 1429.43747971 -474.02602283 1428.49458832 -473.99915088 1427.52312447 C-473.57787482 1412.33078445 -473.14229459 1397.13885449 -472.70480366 1381.94697415 C-471.43749892 1337.93215522 -470.28444409 1293.92604476 -469.81614304 1249.89443588 C-469.8063661 1248.97994248 -469.79658916 1248.06544907 -469.78651594 1247.12324375 C-469.57323249 1226.9980354 -469.41380962 1206.87276787 -469.30465987 1186.74673681 C-469.25973399 1178.63614948 -469.20713088 1170.52561524 -469.15187836 1162.41509247 C-469.14308864 1161.08399474 -469.14308864 1161.08399474 -469.13412135 1159.72600614 C-468.95620551 1133.3179326 -468.27274677 1106.96542078 -467.19657023 1080.5794125 C-465.54888288 1039.98816422 -464.7840512 999.47332832 -465.65722656 958.85253906 C-465.67307699 958.07100247 -465.68892741 957.28946589 -465.70525815 956.48424637 C-467.40819111 873.07684555 -482.46153058 811.42464451 -568.10818773 719.2594625 C-600.79974389 687.90472949 -635.54762605 658.59927556 -671.90101077 631.58150806 C-672.73497695 630.95416773 -673.56894314 630.32682741 -674.42818102 629.68047677 C-675.97220739 628.52045405 -677.52550628 627.37263241 -679.08940893 626.23954873 C-681.11611997 624.71027039 -681.11611997 624.71027039 -684 622 C-683.60911597 618.51553301 -682.43482508 617.16590931 -679.75 615 C-675.88704548 611.77623939 -672.18030353 608.4281699 -668.5 605 C-665.03792164 601.7876002 -661.57347434 598.58893545 -658 595.5 C-653.88639854 591.94182153 -649.90904725 588.2415788 -645.92016602 584.54516602 C-641.8255749 580.75348353 -637.69158422 577.00904537 -633.53515625 573.28515625 C-630.63086734 570.66726871 -627.75229225 568.02246797 -624.875 565.375 C-621.63788971 562.39775181 -618.3886208 559.44046979 -615.0625 556.5625 C-610.930891 552.98062691 -606.93070073 549.26162042 -602.92041016 545.54541016 C-598.82575629 541.7536258 -594.69166993 538.00912216 -590.53515625 534.28515625 C-587.63086734 531.66726871 -584.75229225 529.02246797 -581.875 526.375 C-578.63788971 523.39775181 -575.3886208 520.44046979 -572.0625 517.5625 C-567.930891 513.98062691 -563.93070073 510.26162042 -559.92041016 506.54541016 C-555.82575629 502.7536258 -551.69166993 499.00912216 -547.53515625 495.28515625 C-544.63086734 492.66726871 -541.75229225 490.02246797 -538.875 487.375 C-535.63788971 484.39775181 -532.3886208 481.44046979 -529.0625 478.5625 C-524.930891 474.98062691 -520.93070073 471.26162042 -516.92041016 467.54541016 C-512.82575629 463.7536258 -508.69166993 460.00912216 -504.53515625 456.28515625 C-501.63086734 453.66726871 -498.75229225 451.02246797 -495.875 448.375 C-492.63788971 445.39775181 -489.3886208 442.44046979 -486.0625 439.5625 C-481.930891 435.98062691 -477.93070073 432.26162042 -473.92041016 428.54541016 C-469.82575629 424.7536258 -465.69166993 421.00912216 -461.53515625 417.28515625 C-458.63086734 414.66726871 -455.75229225 412.02246797 -452.875 409.375 C-449.63788971 406.39775181 -446.3886208 403.44046979 -443.0625 400.5625 C-438.930891 396.98062691 -434.93070073 393.26162042 -430.92041016 389.54541016 C-426.82575629 385.7536258 -422.69166993 382.00912216 -418.53515625 378.28515625 C-415.63086734 375.66726871 -412.75229225 373.02246797 -409.875 370.375 C-406.63788971 367.39775181 -403.3886208 364.44046979 -400.0625 361.5625 C-395.930891 357.98062691 -391.93070073 354.26162042 -387.92041016 350.54541016 C-383.82575629 346.7536258 -379.69166993 343.00912216 -375.53515625 339.28515625 C-372.63086734 336.66726871 -369.75229225 334.02246797 -366.875 331.375 C-363.63788971 328.39775181 -360.3886208 325.44046979 -357.0625 322.5625 C-352.930891 318.98062691 -348.93070073 315.26162042 -344.92041016 311.54541016 C-340.82575629 307.7536258 -336.69166993 304.00912216 -332.53515625 300.28515625 C-329.63086734 297.66726871 -326.75229225 295.02246797 -323.875 292.375 C-320.63788971 289.39775181 -317.3886208 286.44046979 -314.0625 283.5625 C-309.930891 279.98062691 -305.93070073 276.26162042 -301.92041016 272.54541016 C-297.82575629 268.7536258 -293.69166993 265.00912216 -289.53515625 261.28515625 C-286.63086734 258.66726871 -283.75229225 256.02246797 -280.875 253.375 C-277.63788971 250.39775181 -274.3886208 247.44046979 -271.0625 244.5625 C-266.930891 240.98062691 -262.93070073 237.26162042 -258.92041016 233.54541016 C-254.82575629 229.7536258 -250.69166993 226.00912216 -246.53515625 222.28515625 C-243.63086734 219.66726871 -240.75229225 217.02246797 -237.875 214.375 C-234.63788971 211.39775181 -231.3886208 208.44046979 -228.0625 205.5625 C-223.930891 201.98062691 -219.93070073 198.26162042 -215.92041016 194.54541016 C-211.82575629 190.7536258 -207.69166993 187.00912216 -203.53515625 183.28515625 C-200.63086734 180.66726871 -197.75229225 178.02246797 -194.875 175.375 C-191.63788971 172.39775181 -188.3886208 169.44046979 -185.0625 166.5625 C-180.930891 162.98062691 -176.93070073 159.26162042 -172.92041016 155.54541016 C-168.82575629 151.7536258 -164.69166993 148.00912216 -160.53515625 144.28515625 C-157.63086734 141.66726871 -154.75229225 139.02246797 -151.875 136.375 C-148.63788971 133.39775181 -145.3886208 130.44046979 -142.0625 127.5625 C-137.930891 123.98062691 -133.93070073 120.26162042 -129.92041016 116.54541016 C-125.82575629 112.7536258 -121.69166993 109.00912216 -117.53515625 105.28515625 C-114.63086734 102.66726871 -111.75229225 100.02246797 -108.875 97.375 C-105.63788971 94.39775181 -102.3886208 91.44046979 -99.0625 88.5625 C-94.930891 84.98062691 -90.93070073 81.26162042 -86.92041016 77.54541016 C-82.82575629 73.7536258 -78.69166993 70.00912216 -74.53515625 66.28515625 C-71.63086734 63.66726871 -68.75229225 61.02246797 -65.875 58.375 C-62.63788971 55.39775181 -59.3886208 52.44046979 -56.0625 49.5625 C-51.930891 45.98062691 -47.93070073 42.26162042 -43.92041016 38.54541016 C-39.82575629 34.7536258 -35.69166993 31.00912216 -31.53515625 27.28515625 C-28.63086591 24.66726742 -25.75238249 22.02237158 -22.875 19.375 C-18.92360119 15.7430574 -14.94433009 12.14991264 -10.88671875 8.63671875 C-9.50678033 7.43962932 -8.13556959 6.23245846 -6.76953125 5.01953125 C-6.04121094 4.37371094 -5.31289063 3.72789063 -4.5625 3.0625 C-3.90378906 2.47597656 -3.24507812 1.88945313 -2.56640625 1.28515625 C-1 0 -1 0 0 0 Z " fill="#E8AD2B" transform="translate(5620,1778)"/>
<path d="M0 0 C2.66228853 3.94864924 2.34189612 8.2746578 2.39457142 12.85436308 C2.41244681 13.76950954 2.4303222 14.68465599 2.44873926 15.62753415 C2.50614076 18.73937476 2.54856549 21.85122492 2.5903492 24.96331215 C2.62719488 27.23154184 2.66441951 29.49976539 2.70198715 31.76798324 C3.19602152 63.25235296 3.35104759 94.74211029 3.52467654 126.22951327 C3.54967308 130.75738911 3.57562243 135.28525892 3.6018675 139.81312768 C4.04132385 215.67036477 4.14593776 291.52617242 4.13166858 367.38450398 C4.12931991 380.35672855 4.12962797 393.32895144 4.13140106 406.30117607 C4.13153023 407.25715355 4.13165941 408.21313103 4.13179249 409.19807752 C4.13232628 413.09719603 4.13287505 416.99631454 4.13344277 420.89543305 C4.13865698 456.73916391 4.13912231 492.58289323 4.13629532 528.4266243 C4.13355143 563.24416754 4.13256324 598.06171005 4.13381577 632.87925339 C4.13389326 635.10840137 4.13397041 637.33754936 4.13404724 639.56669734 C4.1343581 648.54062805 4.13467678 657.51455876 4.135007 666.48848946 C4.13592331 691.59147474 4.13649452 716.69446001 4.13679314 741.7974453 C4.13681361 743.51188228 4.13681361 743.51188228 4.13683449 745.26095435 C4.13724274 781.59168219 4.13612417 817.92240982 4.13394356 854.25313759 C4.13387331 855.42724384 4.13380306 856.60135009 4.13373068 857.81103531 C4.13258736 876.84612373 4.13136709 895.88121215 4.13014051 914.91630056 C4.12552039 986.6929325 4.12519401 1058.46956275 4.12991672 1130.24619469 C4.13128216 1151.00070816 4.1325705 1171.75522163 4.13381577 1192.50973511 C4.13388416 1193.64872048 4.13395256 1194.78770586 4.13402303 1195.96120595 C4.14078372 1309.17738522 4.13986795 1422.39356554 3.11983823 2502.52830272 C3.02977672 2552.49013394 2.94488223 2602.45197232 2.86346436 2652.41381836 C2.86206177 2653.27435786 2.86065918 2654.13489736 2.85921409 2655.02151382 C2.82021266 2678.95366547 2.78148689 2702.88581756 2.74287242 2726.81796984 C2.72867105 2735.61937536 2.71445075 2744.42078084 2.70022845 2753.22218633 C2.69771853 2754.77552839 2.69520861 2756.32887045 2.6926987 2757.88221251 C2.66949157 2772.24439255 2.64627679 2786.60657259 2.62305353 2800.96875261 C2.61593348 2805.37236259 2.60881769 2809.77597257 2.60170517 2814.17958257 C2.52998159 2858.58510721 2.45667747 2902.99062903 2.38192749 2947.39614868 C2.38079619 2948.06824894 2.37966488 2948.74034921 2.3784993 2949.43281615 C2.37078335 2954.01642383 2.36306049 2958.6000315 2.35533631 2963.18363917 C2.3532159 2964.44326187 2.35109549 2965.70288458 2.34891082 2967.00067766 C2.33846957 2973.19723886 2.327957 2979.39379991 2.31729839 2985.59036074 C2.29944464 2995.9970309 2.28171365 3006.40370048 2.26677916 3016.81037532 C2.1299761 3110.54281816 1.5295624 3204.26745513 1 3298 C-676.49 3298 -1353.98 3298 -2052 3298 C-2052.66 3301.96 -2053.32 3305.92 -2054 3310 C-2054.72878233 3313.02689097 -2055.48355421 3316.00423828 -2056.328125 3318.99609375 C-2056.66585434 3320.21777756 -2056.66585434 3320.21777756 -2057.01040649 3321.46414185 C-2057.74920785 3324.12415885 -2058.49860323 3326.7810153 -2059.25 3329.4375 C-2059.51121643 3330.36706512 -2059.77243286 3331.29663025 -2060.04156494 3332.25436401 C-2066.24771378 3354.30864932 -2072.99394253 3376.18792203 -2080 3398 C-2080.27910217 3398.86995605 -2080.55820435 3399.73991211 -2080.84576416 3400.63623047 C-2101.97417085 3466.38075572 -2127.1796747 3530.80964196 -2155 3594 C-2155.45542175 3595.03528839 -2155.45542175 3595.03528839 -2155.92004395 3596.0914917 C-2172.20830176 3633.08446417 -2189.70506338 3669.47983734 -2207.73427582 3705.64933014 C-2208.60892907 3707.40523686 -2209.48200022 3709.16193138 -2210.3550415 3710.91864014 C-2217.52335691 3725.33324616 -2224.92929329 3739.57377194 -2232.71551514 3753.66403198 C-2234.51640658 3756.93913856 -2236.27915985 3760.23374712 -2238.03125 3763.53515625 C-2238.60746094 3764.61941895 -2239.18367188 3765.70368164 -2239.77734375 3766.82080078 C-2240.63005859 3768.42544189 -2240.63005859 3768.42544189 -2241.5 3770.0625 C-2247.28736567 3780.91381063 -2253.25788175 3791.64356521 -2259.42822266 3802.28173828 C-2261.12257354 3805.21198101 -2262.8023579 3808.15027235 -2264.48046875 3811.08984375 C-2273.71314699 3827.23165517 -2283.27250712 3843.15356163 -2293 3859 C-2293.88582764 3860.44463623 -2293.88582764 3860.44463623 -2294.78955078 3861.91845703 C-2298.49983596 3867.96233614 -2302.24143167 3873.98605263 -2306 3880 C-2306.48307617 3880.77682129 -2306.96615234 3881.55364258 -2307.46386719 3882.35400391 C-2316.05567998 3896.14612444 -2325.05074574 3909.66786742 -2334.0625 3923.1875 C-2334.65306183 3924.07384125 -2335.24362366 3924.9601825 -2335.8520813 3925.87338257 C-2355.80741637 3955.80448153 -2376.08229899 3985.55054935 -2397.98120117 4014.10205078 C-2402.46146434 4019.95064106 -2406.84763082 4025.8592378 -2411.1875 4031.8125 C-2416.06831361 4038.49314385 -2421.13148356 4044.97954777 -2426.38964844 4051.36669922 C-2429.65527448 4055.33352719 -2432.82944207 4059.34581525 -2435.9375 4063.4375 C-2441.56507865 4070.81567722 -2447.48978501 4077.9405597 -2453.41357422 4085.08154297 C-2455.49965878 4087.60423495 -2457.56232293 4090.14565294 -2459.625 4092.6875 C-2463.52331695 4097.46257597 -2467.53097888 4102.1376081 -2471.55688477 4106.80493164 C-2474.62063901 4110.36442953 -2477.61608178 4113.96701387 -2480.5625 4117.625 C-2484.66301233 4122.67808144 -2489.01584757 4127.45309348 -2493.4375 4132.22265625 C-2496.10114137 4135.10962121 -2498.69148348 4138.04923334 -2501.265625 4141.015625 C-2504.79501966 4145.05376124 -2508.40698252 4149.0185482 -2512 4153 C-2512.721875 4153.804375 -2513.44375 4154.60875 -2514.1875 4155.4375 C-2520.07822282 4162.00144829 -2526.01984066 4168.51754519 -2532 4175 C-2532.54317871 4175.58974609 -2533.08635742 4176.17949219 -2533.64599609 4176.78710938 C-2540.44208212 4184.15584475 -2547.29913236 4191.43440302 -2554.47412109 4198.43725586 C-2557.16565018 4201.08250088 -2559.7090502 4203.78919226 -2562.1640625 4206.65625 C-2566.5137508 4211.68275578 -2571.208115 4216.35820993 -2575.9152832 4221.0456543 C-2577.43491668 4222.5599258 -2578.94912517 4224.0794743 -2580.46289062 4225.59960938 C-2585.21215024 4230.3517802 -2590.01868214 4234.97216297 -2595.12524414 4239.34350586 C-2598.57953522 4242.39564351 -2601.77365699 4245.71064248 -2605 4249 C-2609.51184999 4253.59997206 -2614.08610609 4258.01709773 -2618.96875 4262.22265625 C-2622.57528158 4265.37837138 -2626.02754777 4268.69832411 -2629.5 4272 C-2634.31255977 4276.5758765 -2639.16945635 4281.06817881 -2644.18701172 4285.41894531 C-2646.60368985 4287.52646048 -2648.95726063 4289.69924232 -2651.3125 4291.875 C-2655.8517496 4296.01925965 -2660.53458296 4299.92578398 -2665.31640625 4303.78515625 C-2667.94708557 4305.95632827 -2670.47942424 4308.20241357 -2673 4310.5 C-2677.24167026 4314.3609219 -2681.62033927 4318.00549703 -2686.078125 4321.61328125 C-2689.27411357 4324.22390828 -2692.42058807 4326.88734966 -2695.5625 4329.5625 C-2700.07901875 4333.39986279 -2704.63993444 4337.16611092 -2709.28515625 4340.84765625 C-2711.36171852 4342.49396677 -2713.4312317 4344.14771438 -2715.49609375 4345.80859375 C-2722.94684718 4351.79877525 -2730.44691073 4357.71543672 -2738.05029297 4363.51123047 C-2740.31948629 4365.24395535 -2742.5834194 4366.98345983 -2744.84765625 4368.72265625 C-2755.37479658 4376.79408248 -2765.99827798 4384.70031723 -2776.78955078 4392.41455078 C-2779.05216148 4394.03741293 -2781.30645149 4395.67123974 -2783.55859375 4397.30859375 C-2784.32341064 4397.86393799 -2785.08822754 4398.41928223 -2785.8762207 4398.99145508 C-2787.288466 4400.01732993 -2788.69988763 4401.04434061 -2790.11010742 4402.07299805 C-2802.81422031 4411.28098813 -2815.88078117 4419.99057104 -2828.9375 4428.6875 C-2830.00307632 4429.39741592 -2830.00307632 4429.39741592 -2831.09017944 4430.12167358 C-2905.91484708 4479.93428875 -2984.88400383 4524.03548212 -3071.71240234 4562.12158203 C-3075.06991523 4563.59067604 -3078.42242745 4565.07067722 -3081.77282715 4566.5559082 C-3102.27982143 4575.63899554 -3123.07055515 4583.94489029 -3144 4592 C-3144.72020325 4592.27759155 -3145.44040649 4592.55518311 -3146.18243408 4592.84118652 C-3235.12839517 4627.07861774 -3327.07144717 4652.74091993 -3691.45477295 4704.80859375 C-3694.77625354 4704.98791996 -3698.09734427 4705.173387 -3701.41845703 4705.359375 C-3768.8006583 4709.04212795 -3837.2281827 4708.8355321 -3904.60644531 4705.18359375 C-3908.23867731 4704.98708739 -3911.87126621 4704.79817973 -3915.50390625 4704.609375 C-4006.18486411 4699.83038957 -4096.39400093 4689.87521146 -4471.2109375 4616.265625 C-4472.34753815 4615.97877838 -4473.48413879 4615.69193176 -4474.65518188 4615.39639282 C-4477.77225086 4614.60565362 -4480.8861555 4613.80332489 -4484 4613 C-4485.05648743 4612.73634644 -4486.11297485 4612.47269287 -4487.20147705 4612.2010498 C-4488.70397003 4611.81487488 -4488.70397003 4611.81487488 -4490.23681641 4611.42089844 C-4491.13075104 4611.19513123 -4492.02468567 4610.96936401 -4492.94570923 4610.73675537 C-4495 4610 -4495 4610 -4496 4608 C-4495.10643799 4608.16435547 -4495.10643799 4608.16435547 -4494.19482422 4608.33203125 C-4401.97336711 4625.1150743 -4308.1909292 4634.05377329 -3667 4584 C-3665.58312897 4583.64095581 -3665.58312897 4583.64095581 -3664.13763428 4583.2746582 C-3574.03145648 4560.42697516 -3486.30629779 4529.1632914 -3390 4483 C-3389.38362671 4482.69729187 -3388.76725342 4482.39458374 -3388.13220215 4482.08270264 C-3370.54219744 4473.43688897 -3353.0805499 4464.6232545 -3336 4455 C-3334.91799316 4454.39188477 -3333.83598633 4453.78376953 -3332.72119141 4453.15722656 C-3316.62023344 4444.0875996 -3300.69169708 4434.7647848 -3285 4425 C-3284.11747559 4424.4519873 -3283.23495117 4423.90397461 -3282.32568359 4423.33935547 C-3242.06004457 4398.25378098 -3203.42364686 4370.49291402 -3166.73974609 4340.42382812 C-3165.18051673 4339.14773696 -3163.615989 4337.87812619 -3162.05078125 4336.609375 C-3155.80783589 4331.5421084 -3149.68680617 4326.34370075 -3143.59765625 4321.09375 C-3141.2621662 4319.08054875 -3138.91643598 4317.08071839 -3136.55859375 4315.09375 C-3128.1740413 4308.00969287 -3120.15000509 4300.59665323 -3112.18725586 4293.04370117 C-3110.64975501 4291.60711008 -3109.09700989 4290.18674582 -3107.53344727 4288.77856445 C-3098.32313462 4280.47500414 -3089.57320012 4271.72489066 -3080.81665039 4262.94702148 C-3078.1790307 4260.3040134 -3075.5360701 4257.66643019 -3072.89257812 4255.02929688 C-3071.1923874 4253.32844575 -3069.49250669 4251.62728466 -3067.79296875 4249.92578125 C-3067.01366501 4249.14850174 -3066.23436127 4248.37122223 -3065.43144226 4247.57038879 C-3061.31800514 4243.43946635 -3057.35801422 4239.23234882 -3053.56391907 4234.8054657 C-3050.80262906 4231.61769563 -3047.89208479 4228.56868537 -3045 4225.5 C-3040.23335983 4220.41388159 -3035.52744829 4215.30137108 -3031 4210 C-3030.07845711 4208.93200501 -3029.15654587 4207.8643278 -3028.234375 4206.796875 C-3022.89460936 4200.60520036 -3017.61475457 4194.37468376 -3012.46484375 4188.0234375 C-3010.57417295 4185.70429456 -3008.67043709 4183.39918706 -3006.75390625 4181.1015625 C-2999.99960584 4172.98983533 -2993.46800964 4164.77145384 -2987.19140625 4156.28515625 C-2984.8786531 4153.16209542 -2982.52645008 4150.07277161 -2980.15234375 4146.99609375 C-2973.07060021 4137.8125835 -2966.19593859 4128.5622178 -2959.71630859 4118.94287109 C-2956.14765644 4113.64876516 -2952.46032258 4108.46264744 -2948.6875 4103.3125 C-2943.27936857 4095.89093422 -2938.14151866 4088.31508458 -2933.078125 4080.6550293 C-2928.40112319 4073.58543509 -2923.67486654 4066.5512861 -2918.91796875 4059.53515625 C-2917.63475501 4057.64055081 -2916.351552 4055.7459381 -2915.06835938 4053.85131836 C-2913.15122825 4051.0211118 -2911.23290805 4048.19175601 -2909.31030273 4045.36526489 C-2902.0792846 4034.73264693 -2895.04700184 4024.03488835 -2888.43237305 4013.0065918 C-2885.92492209 4008.83765012 -2883.28767996 4004.75852837 -2880.625 4000.6875 C-2880.11678711 3999.90632813 -2879.60857422 3999.12515625 -2879.08496094 3998.3203125 C-2878.68051758 3997.69898437 -2878.27607422 3997.07765625 -2877.859375 3996.4375 C-2872.42914333 3988.04872832 -2867.21913445 3979.52103584 -2862 3971 C-2861.33661621 3969.9171875 -2860.67323242 3968.834375 -2859.98974609 3967.71875 C-2850.72853017 3952.58801458 -2841.62087522 3937.37777958 -2832.74462891 3922.01708984 C-2830.94251071 3918.90058038 -2829.13370335 3915.78801863 -2827.32421875 3912.67578125 C-2814.36727289 3890.35204328 -2801.87300536 3867.77846023 -2789.64355469 3845.04882812 C-2787.99032567 3841.98205392 -2786.327719 3838.92050295 -2784.6640625 3835.859375 C-2761.11993843 3792.39583917 -2738.92882519 3748.13357792 -2718.70996094 3703.02462769 C-2716.58482871 3698.28699322 -2714.43231103 3693.56251156 -2712.265625 3688.84375 C-2675.68174543 3609.10788731 -2644.226848 3526.92462594 -2513 2898 C-2512.9572998 2897.03923553 -2512.91459961 2896.07847107 -2512.87060547 2895.08859253 C-2512.10078658 2877.32580363 -2511.83985999 2859.58362469 -2511.86962891 2841.80737305 C-2511.87535261 2838.36221275 -2511.87200564 2834.91713002 -2511.86605644 2831.47197247 C-2511.86236972 2828.72515828 -2511.86362518 2825.97836123 -2511.86618423 2823.2315464 C-2511.8671326 2821.36950756 -2511.8642119 2819.50746792 -2511.86105347 2817.64543152 C-2511.8917713 2806.05651409 -2512.49501946 2794.61455231 -2513 2783 C-1828.58 2783 -1144.16 2783 -439 2783 C-439 2542.76 -439 2302.52 -439 2055 C-605.65 2055 -772.3 2055 -944 2055 C-944.48454371 1807.54621951 -944.48454371 1807.54621951 -944.57797956 1712.82993257 C-944.60321736 1687.31076154 -944.62913015 1661.79159133 -944.65675107 1636.27242275 C-944.65917381 1634.02766615 -944.66157594 1631.78290953 -944.66397306 1629.5381529 C-944.70075276 1595.16817875 -944.7475641 1560.7982558 -944.82397461 1526.42834473 C-944.82561739 1525.68932167 -944.82726018 1524.95029862 -944.82895275 1524.18888092 C-944.85550095 1512.2737645 -944.88290436 1500.35865004 -944.91042129 1488.44353582 C-944.98967282 1454.12114786 -945.06259264 1419.79879916 -945.09367752 1385.47632885 C-945.09431994 1384.77039829 -945.09496236 1384.06446773 -945.09562425 1383.33714534 C-945.10961397 1367.83962369 -945.12035196 1352.34210156 -945.12801179 1336.84457554 C-945.13115122 1330.60873178 -945.13475867 1324.37288831 -945.13852692 1318.13704491 C-945.13892804 1317.45456239 -945.13932917 1316.77207987 -945.13974245 1316.06891606 C-945.15289597 1294.08533008 -945.20413543 1272.10203561 -945.2753865 1250.11856725 C-945.34898875 1227.35432202 -945.38016835 1204.59031737 -945.36201653 1181.82593397 C-945.35287875 1168.69972468 -945.37731599 1155.5745713 -945.44957052 1142.44855238 C-945.49453471 1133.68245915 -945.49598973 1124.91705815 -945.46198176 1116.15091732 C-945.44384525 1111.15417229 -945.44470605 1106.15942515 -945.49859819 1101.16289357 C-945.54729791 1096.61319774 -945.54032712 1092.06705065 -945.48967971 1087.51740708 C-945.48113609 1085.88541939 -945.49255312 1084.25316802 -945.52682294 1082.62151781 C-945.68650716 1074.5012627 -945.28109127 1068.6942794 -939.77501099 1062.3946911 C-937.28345368 1059.80727784 -934.66724469 1057.40667549 -932 1055 C-930.81072689 1053.70794859 -929.63621951 1052.40144458 -928.5 1051.0625 C-927.96890625 1050.45019531 -927.4378125 1049.83789062 -926.890625 1049.20703125 C-925.35599497 1047.41557264 -923.82553682 1045.62076335 -922.296875 1043.82421875 C-916.46766312 1036.98180944 -910.54467469 1030.25882339 -904.4453125 1023.65625 C-900.29611335 1019.14913272 -896.29299196 1014.52480269 -892.328125 1009.85546875 C-886.77933276 1003.33151747 -881.13848837 996.93778801 -875.28808594 990.68261719 C-872.24378242 987.40705027 -869.36033232 984.05468486 -866.5625 980.5625 C-861.98085598 974.85422221 -857.01197564 969.55703962 -852.0078125 964.22265625 C-849.15453222 961.17862987 -846.38811991 958.07033123 -843.6640625 954.91015625 C-841.68459874 952.63795489 -839.6541683 950.41540128 -837.625 948.1875 C-834.55253227 944.78916448 -831.61557378 941.32409477 -828.75 937.75 C-824.09341188 931.99053574 -819.07165823 926.62051301 -814.0078125 921.22265625 C-811.15453222 918.17862987 -808.38811991 915.07033123 -805.6640625 911.91015625 C-803.68459874 909.63795489 -801.6541683 907.41540128 -799.625 905.1875 C-796.55253227 901.78916448 -793.61557378 898.32409477 -790.75 894.75 C-786.08941135 888.98558772 -781.06220719 883.61148047 -775.99609375 878.20703125 C-771.63009707 873.54808681 -767.46824167 868.72929197 -763.3359375 863.86328125 C-757.78367872 857.33750327 -752.14098601 850.94045846 -746.28808594 844.68261719 C-743.24378242 841.40705027 -740.36033232 838.05468486 -737.5625 834.5625 C-732.98085598 828.85422221 -728.01197564 823.55703962 -723.0078125 818.22265625 C-720.15453222 815.17862987 -717.38811991 812.07033123 -714.6640625 808.91015625 C-712.68459874 806.63795489 -710.6541683 804.41540128 -708.625 802.1875 C-705.55253227 798.78916448 -702.61557378 795.32409477 -699.75 791.75 C-695.08941135 785.98558772 -690.06220719 780.61148047 -684.99609375 775.20703125 C-680.63009707 770.54808681 -676.46824167 765.72929197 -672.3359375 760.86328125 C-666.78367872 754.33750327 -661.14098601 747.94045846 -655.28808594 741.68261719 C-652.24378242 738.40705027 -649.36033232 735.05468486 -646.5625 731.5625 C-641.98085598 725.85422221 -637.01197564 720.55703962 -632.0078125 715.22265625 C-629.15453222 712.17862987 -626.38811991 709.07033123 -623.6640625 705.91015625 C-621.68459874 703.63795489 -619.6541683 701.41540128 -617.625 699.1875 C-614.55253227 695.78916448 -611.61557378 692.32409477 -608.75 688.75 C-604.09341188 682.99053574 -599.07165823 677.62051301 -594.0078125 672.22265625 C-591.15453222 669.17862987 -588.38811991 666.07033123 -585.6640625 662.91015625 C-583.68459874 660.63795489 -581.6541683 658.41540128 -579.625 656.1875 C-576.55253227 652.78916448 -573.61557378 649.32409477 -570.75 645.75 C-566.08941135 639.98558772 -561.06220719 634.61148047 -555.99609375 629.20703125 C-551.63009707 624.54808681 -547.46824167 619.72929197 -543.3359375 614.86328125 C-537.78367872 608.33750327 -532.14098601 601.94045846 -526.28808594 595.68261719 C-523.24378242 592.40705027 -520.36033232 589.05468486 -517.5625 585.5625 C-512.98085598 579.85422221 -508.01197564 574.55703962 -503.0078125 569.22265625 C-500.15453222 566.17862987 -497.38811991 563.07033123 -494.6640625 559.91015625 C-492.68459874 557.63795489 -490.6541683 555.41540128 -488.625 553.1875 C-485.55253227 549.78916448 -482.61557378 546.32409477 -479.75 542.75 C-475.08941135 536.98558772 -470.06220719 531.61148047 -464.99609375 526.20703125 C-460.63009707 521.54808681 -456.46824167 516.72929197 -452.3359375 511.86328125 C-446.78367872 505.33750327 -441.14098601 498.94045846 -435.28808594 492.68261719 C-432.24378242 489.40705027 -429.36033232 486.05468486 -426.5625 482.5625 C-421.98085598 476.85422221 -417.01197564 471.55703962 -412.0078125 466.22265625 C-409.15453222 463.17862987 -406.38811991 460.07033123 -403.6640625 456.91015625 C-401.68459874 454.63795489 -399.6541683 452.41540128 -397.625 450.1875 C-394.55253227 446.78916448 -391.61557378 443.32409477 -388.75 439.75 C-384.09341188 433.99053574 -379.07165823 428.62051301 -374.0078125 423.22265625 C-371.15453222 420.17862987 -368.38811991 417.07033123 -365.6640625 413.91015625 C-363.68459874 411.63795489 -361.6541683 409.41540128 -359.625 407.1875 C-356.55253227 403.78916448 -353.61557378 400.32409477 -350.75 396.75 C-346.08941135 390.98558772 -341.06220719 385.61148047 -335.99609375 380.20703125 C-331.63009707 375.54808681 -327.46824167 370.72929197 -323.3359375 365.86328125 C-317.78367872 359.33750327 -312.14098601 352.94045846 -306.28808594 346.68261719 C-303.24378242 343.40705027 -300.36033232 340.05468486 -297.5625 336.5625 C-292.98085598 330.85422221 -288.01197564 325.55703962 -283.0078125 320.22265625 C-280.15453222 317.17862987 -277.38811991 314.07033123 -274.6640625 310.91015625 C-272.68459874 308.63795489 -270.6541683 306.41540128 -268.625 304.1875 C-265.55253227 300.78916448 -262.61557378 297.32409477 -259.75 293.75 C-255.08941135 287.98558772 -250.06220719 282.61148047 -244.99609375 277.20703125 C-240.63009707 272.54808681 -236.46824167 267.72929197 -232.3359375 262.86328125 C-226.78367872 256.33750327 -221.14098601 249.94045846 -215.28808594 243.68261719 C-212.24378242 240.40705027 -209.36033232 237.05468486 -206.5625 233.5625 C-201.98085598 227.85422221 -197.01197564 222.55703962 -192.0078125 217.22265625 C-189.15453222 214.17862987 -186.38811991 211.07033123 -183.6640625 207.91015625 C-181.68459874 205.63795489 -179.6541683 203.41540128 -177.625 201.1875 C-174.55253227 197.78916448 -171.61557378 194.32409477 -168.75 190.75 C-164.08941135 184.98558772 -159.06220719 179.61148047 -153.99609375 174.20703125 C-149.63009707 169.54808681 -145.46824167 164.72929197 -141.3359375 159.86328125 C-135.78367872 153.33750327 -130.14098601 146.94045846 -124.28808594 140.68261719 C-121.24378242 137.40705027 -118.36033232 134.05468486 -115.5625 130.5625 C-110.98085598 124.85422221 -106.01197564 119.55703962 -101.0078125 114.22265625 C-98.15453222 111.17862987 -95.38811991 108.07033123 -92.6640625 104.91015625 C-90.68459874 102.63795489 -88.6541683 100.41540128 -86.625 98.1875 C-83.55253227 94.78916448 -80.61557378 91.32409477 -77.75 87.75 C-73.09341188 81.99053574 -68.07165823 76.62051301 -63.0078125 71.22265625 C-60.15453222 68.17862987 -57.38811991 65.07033123 -54.6640625 61.91015625 C-52.68459874 59.63795489 -50.6541683 57.41540128 -48.625 55.1875 C-45.55253227 51.78916448 -42.61557378 48.32409477 -39.75 44.75 C-35.08941135 38.98558772 -30.06220719 33.61148047 -24.99609375 28.20703125 C-21.07576119 24.02365391 -17.31995232 19.71535288 -13.59619141 15.35693359 C-12.52804324 14.10684629 -11.45959324 12.85701684 -10.39086914 11.60742188 C-9.316957 10.35087596 -8.24447072 9.09310968 -7.17358398 7.83398438 C-6.67802002 7.25326172 -6.18245605 6.67253906 -5.671875 6.07421875 C-5.2294043 5.55432373 -4.78693359 5.03442871 -4.33105469 4.4987793 C-2.94353789 2.93642317 -1.49123772 1.46310631 0 0 Z " fill="#EBB22E" transform="translate(6748,1743)"/>
<path d="M0 0 C183.81 0 367.62 0 557 0 C555.22291313 3.55417375 553.97628513 5.27387091 551.25293636 7.99776196 C550.46630844 8.78939693 549.67968051 9.58103189 548.86921537 10.3966558 C547.99906848 11.26212035 547.12892159 12.12758491 546.23240662 13.01927567 C545.30884609 13.94574307 544.38528556 14.87221048 543.43373835 15.82675266 C540.85733676 18.41097435 538.27470799 20.98889448 535.69106324 23.56587187 C532.88621495 26.36566405 530.08714841 29.17122623 527.28735256 31.97606921 C522.37537679 36.8952836 517.45967082 41.81074586 512.54153061 46.72379684 C505.22834879 54.02943151 497.92087002 61.34075062 490.61452356 68.65322051 C477.56778556 81.71050527 464.51531203 94.76204474 451.46041492 107.81117133 C440.03733848 119.2292231 428.61611474 130.64912398 417.19674683 142.0708847 C416.44022921 142.82755509 415.6837116 143.58422547 414.90426921 144.36382526 C411.83359249 147.43512462 408.76292285 150.50643106 405.69226485 153.57774915 C376.870215 182.40592104 348.04232845 211.22824999 319.21183895 240.04798126 C293.57545144 265.67487518 267.94424209 291.30693731 242.31738281 316.94335938 C213.54841812 345.72302337 184.77623771 374.49946614 155.99882984 403.27068782 C152.93363124 406.33524495 149.86844053 409.39980998 146.80325317 412.46437836 C146.04848086 413.21899252 145.29370854 413.97360668 144.51606434 414.75108794 C133.09776413 426.16710927 121.68194121 437.58560392 110.26730347 449.00528717 C97.29523648 461.98305935 84.31962862 474.95727932 71.33927035 487.9267588 C64.06683399 495.19330183 56.79719015 502.46261287 49.53146 509.7358615 C44.68688229 514.584901 39.83872046 519.43033662 34.98754077 524.27277119 C32.21773687 527.03778644 29.44958588 529.80440566 26.68574321 532.57538071 C23.71836946 535.55033447 20.74343901 538.51760966 17.76759338 541.4840889 C16.8974465 542.35891812 16.02729961 543.23374734 15.13078463 544.13508654 C14.3441567 544.91670743 13.55752877 545.69832832 12.74706364 546.50363469 C12.06649971 547.1840631 11.38593578 547.86449151 10.68474871 548.56553896 C9 550 9 550 7 550 C6.25253759 493.60115556 5.50518447 437.20230967 4.75797171 380.80346193 C4.66913366 374.09805989 4.58029463 367.39265787 4.49145508 360.68725586 C4.48261678 360.02016057 4.47377848 359.35306527 4.46467236 358.66575497 C4.17194637 336.57147437 3.87914933 314.47719471 3.58632035 292.38291547 C3.29356663 270.29419225 3.00089202 248.20546798 2.70828623 226.11674279 C2.54454529 213.7561503 2.38077019 201.39555827 2.21690559 189.03496742 C2.15396502 184.28692757 2.09102779 179.53888768 2.02809143 174.79084778 C2.01273528 173.63243494 1.99737913 172.4740221 1.98155764 171.28050584 C1.81756749 158.90871552 1.65379504 146.53692239 1.49070835 134.16512012 C1.47665389 133.09905276 1.46259944 132.03298539 1.44811909 130.93461296 C1.39241961 126.70943125 1.33672126 122.48424952 1.28105708 118.25906735 C1.12352555 106.3039002 0.96481006 94.34875032 0.80363559 82.3936317 C0.70579229 75.13547551 0.6087509 67.87730893 0.51234747 60.61913347 C0.44748708 55.74018574 0.38156167 50.8612542 0.31470808 45.98233339 C0.27445842 43.02406982 0.23533683 40.06579209 0.19652148 37.10750939 C0.17074001 35.16662984 0.14365096 33.22576778 0.11647737 31.28490722 C-0.01845307 20.85397591 0 10.43495682 0 0 Z " fill="#D18E27" transform="translate(4114,1744)"/>
<path d="M0 0 C183.48 0 366.96 0 556 0 C554.22258998 3.55482003 552.97606267 5.27383802 550.2517857 7.99776196 C549.46490154 8.78939693 548.67801739 9.58103189 547.86728826 10.3966558 C546.99685553 11.26212035 546.12642279 12.12758491 545.2296133 13.01927567 C544.30575318 13.94574307 543.38189306 14.87221048 542.43003717 15.82675266 C539.85280161 18.41097523 537.26933878 20.98889412 534.68486188 23.56587187 C531.8791203 26.36565824 529.07916641 29.17122235 526.27848536 31.97606921 C521.36497254 36.89527793 516.44773663 41.81074049 511.52807236 46.72379684 C504.21265426 54.02941609 496.90294843 61.34073065 489.59439899 68.65322051 C477.30104829 80.9528538 465.00296735 93.24774728 452.70213127 105.5398941 C440.51860954 117.71481113 428.33693447 129.89157052 416.1578083 142.0708847 C415.40114557 142.82755509 414.64448283 143.58422547 413.86489092 144.36382526 C410.79363771 147.43511937 407.72239685 150.50642584 404.65117284 153.57774915 C375.82414238 182.40568626 346.99168463 211.22818952 318.15651107 240.04798126 C292.51470566 265.67615874 266.87659992 291.30803124 241.24194336 316.94335938 C239.59567194 318.58967121 237.94940049 320.23598302 236.30312901 321.8822948 C235.48925946 322.6961847 234.67538991 323.5100746 233.83685765 324.34862783 C229.74030607 328.4452802 225.64374939 332.54192747 221.54718685 336.63856888 C220.73907137 337.44670108 219.93095588 338.25483328 219.09835205 339.08745433 C197.70239357 360.48377761 176.30398584 381.87765105 154.90474135 403.27068782 C154.1439792 404.0312297 153.38321704 404.79177158 152.5994015 405.57536018 C149.53993295 408.63394046 146.48046434 411.69252068 143.42098278 414.75108794 C132.75824402 425.4106619 122.09633535 436.07106549 111.43495807 446.73200116 C97.70066805 460.46569521 83.9646919 474.1976993 70.22576898 487.9267588 C62.95250117 495.19489567 55.68060759 502.4644011 48.41066246 509.7358615 C43.56404946 514.58320534 38.71563728 519.42874445 33.86570896 524.27277119 C31.09616212 527.03904761 28.3274346 529.80613143 25.56086003 532.57538071 C22.59143195 535.54763813 19.61821302 538.5160729 16.64454556 541.4840889 C15.77177165 542.35891812 14.89899775 543.23374734 13.99977615 544.13508654 C13.21539552 544.91670743 12.43101489 545.69832832 11.62286514 546.50363469 C10.94214523 547.1840631 10.26142533 547.86449151 9.56007754 548.56553896 C8 550 8 550 7 550 C6.17780112 523.87717811 5.70978322 497.75747079 5.37667644 471.62424886 C5.30567361 466.1002734 5.23157193 460.57633925 5.15791321 455.05239868 C5.01475219 444.27919608 4.87442487 433.50595846 4.73520844 422.73270423 C4.62170665 413.95254297 4.5072073 405.17239523 4.39203072 396.39225578 C4.37551404 395.1329942 4.35899736 393.87373262 4.34198018 392.5763116 C4.30840099 390.01633357 4.27482052 387.45635555 4.24123878 384.89637756 C4.01645777 367.75377155 3.79266005 350.61115294 3.57096004 333.46850681 C3.5623289 332.80112139 3.55369775 332.13373596 3.54480506 331.44612673 C3.47477025 326.03032425 3.40476523 320.61452139 3.33476226 315.1987185 C3.06236236 294.12617269 2.7867621 273.05367095 2.50854492 251.98120117 C2.19417285 228.16975251 1.88215679 204.35827443 1.5735274 180.54675049 C1.41074414 167.99070111 1.24702989 155.43466577 1.08061028 142.87866402 C0.93886859 132.18208466 0.79967207 121.4854755 0.66346806 110.78882415 C0.59428334 105.3603445 0.52412603 99.93188336 0.45079422 94.50345802 C0.43713261 93.48279692 0.423471 92.46213582 0.4093954 91.41054559 C0.38467206 89.56854009 0.35961524 87.726539 0.33404285 85.88454509 C-0.0483251 57.25113059 0 28.64117272 0 0 Z " fill="#D18D27" transform="translate(3435,2420)"/>
<path d="M0 0 C183.48 0 366.96 0 556 0 C554.22258998 3.55482003 552.97606267 5.27383802 550.2517857 7.99776196 C549.46490154 8.78939693 548.67801739 9.58103189 547.86728826 10.3966558 C546.99685553 11.26212035 546.12642279 12.12758491 545.2296133 13.01927567 C544.30575318 13.94574307 543.38189306 14.87221048 542.43003717 15.82675266 C539.85280161 18.41097523 537.26933878 20.98889412 534.68486188 23.56587187 C531.8791203 26.36565824 529.07916641 29.17122235 526.27848536 31.97606921 C521.36497254 36.89527793 516.44773663 41.81074049 511.52807236 46.72379684 C504.21265426 54.02941609 496.90294843 61.34073065 489.59439899 68.65322051 C477.30104829 80.9528538 465.00296735 93.24774728 452.70213127 105.5398941 C440.51860954 117.71481113 428.33693447 129.89157052 416.1578083 142.0708847 C415.40114557 142.82755509 414.64448283 143.58422547 413.86489092 144.36382526 C410.79363771 147.43511937 407.72239685 150.50642584 404.65117284 153.57774915 C375.82414238 182.40568626 346.99168463 211.22818952 318.15651107 240.04798126 C292.51470566 265.67615874 266.87659992 291.30803124 241.24194336 316.94335938 C239.59567194 318.58967121 237.94940049 320.23598302 236.30312901 321.8822948 C235.48925946 322.6961847 234.67538991 323.5100746 233.83685765 324.34862783 C229.74030607 328.4452802 225.64374939 332.54192747 221.54718685 336.63856888 C220.73907137 337.44670108 219.93095588 338.25483328 219.09835205 339.08745433 C197.70239357 360.48377761 176.30398584 381.87765105 154.90474135 403.27068782 C154.1439792 404.0312297 153.38321704 404.79177158 152.5994015 405.57536018 C149.53993295 408.63394046 146.48046434 411.69252068 143.42098278 414.75108794 C132.75824402 425.4106619 122.09633535 436.07106549 111.43495807 446.73200116 C97.70066805 460.46569521 83.9646919 474.1976993 70.22576898 487.9267588 C62.95250117 495.19489567 55.68060759 502.4644011 48.41066246 509.7358615 C43.56404946 514.58320534 38.71563728 519.42874445 33.86570896 524.27277119 C31.09616212 527.03904761 28.3274346 529.80613143 25.56086003 532.57538071 C22.59143195 535.54763813 19.61821302 538.5160729 16.64454556 541.4840889 C15.77177165 542.35891812 14.89899775 543.23374734 13.99977615 544.13508654 C13.21539552 544.91670743 12.43101489 545.69832832 11.62286514 546.50363469 C10.94214523 547.1840631 10.26142533 547.86449151 9.56007754 548.56553896 C8 550 8 550 7 550 C6.17780112 523.87717811 5.70978322 497.75747079 5.37667644 471.62424886 C5.30567361 466.1002734 5.23157193 460.57633925 5.15791321 455.05239868 C5.01475219 444.27919608 4.87442487 433.50595846 4.73520844 422.73270423 C4.62170665 413.95254297 4.5072073 405.17239523 4.39203072 396.39225578 C4.37551404 395.1329942 4.35899736 393.87373262 4.34198018 392.5763116 C4.30840099 390.01633357 4.27482052 387.45635555 4.24123878 384.89637756 C4.01645777 367.75377155 3.79266005 350.61115294 3.57096004 333.46850681 C3.5623289 332.80112139 3.55369775 332.13373596 3.54480506 331.44612673 C3.47477025 326.03032425 3.40476523 320.61452139 3.33476226 315.1987185 C3.06236236 294.12617269 2.7867621 273.05367095 2.50854492 251.98120117 C2.19417285 228.16975251 1.88215679 204.35827443 1.5735274 180.54675049 C1.41074414 167.99070111 1.24702989 155.43466577 1.08061028 142.87866402 C0.93886859 132.18208466 0.79967207 121.4854755 0.66346806 110.78882415 C0.59428334 105.3603445 0.52412603 99.93188336 0.45079422 94.50345802 C0.43713261 93.48279692 0.423471 92.46213582 0.4093954 91.41054559 C0.38467206 89.56854009 0.35961524 87.726539 0.33404285 85.88454509 C-0.0483251 57.25113059 0 28.64117272 0 0 Z " fill="#D18D27" transform="translate(3435,1744)"/>
<path d="M0 0 C52.8 0 105.6 0 160 0 C163.17323963 6.34647925 166.19233575 12.57040397 168.90625 19.09765625 C169.26330017 19.94794403 169.62035034 20.79823181 169.98822021 21.67428589 C170.75822379 23.50850206 171.52679909 25.34331837 172.29406738 27.17868042 C174.40169967 32.21878895 176.52151851 37.25376994 178.640625 42.2890625 C179.08186707 43.33805222 179.52310913 44.38704193 179.97772217 45.46781921 C184.68437081 56.64618987 189.46337187 67.79319812 194.25 78.9375 C201.65102631 96.17647172 209.02695922 113.42587297 216.375 130.6875 C216.85056335 131.80464386 217.32612671 132.92178772 217.81610107 134.07278442 C219.74727831 138.60956039 221.67829314 143.14640543 223.60903931 147.68336487 C227.06046695 155.79358743 230.5140153 163.90290439 233.96875 172.01171875 C234.46000366 173.16484558 234.95125732 174.31797241 235.45739746 175.50604248 C237.88729629 181.20973014 240.31747971 186.91329633 242.74804688 192.61669922 C247.23842013 203.15538172 251.72188011 213.69689615 256.1875 224.24609375 C256.99101408 226.14275533 257.79456128 228.03940288 258.59814453 229.93603516 C260.08096075 233.43588929 261.56066559 236.937036 263.03857422 240.43896484 C263.68965696 241.97628852 264.34085388 243.51356385 264.9921875 245.05078125 C265.28577148 245.74892441 265.57935547 246.44706757 265.88183594 247.16636658 C267.0712688 250.31317653 267.0712688 250.31317653 269 253 C278.02442244 231.17668747 287.04710752 209.35277447 296 187.5 C302.21127262 172.33939471 308.45874857 157.1939689 314.71826172 142.05322266 C320.4904823 128.08996829 326.24097286 114.11804419 331.9682312 100.1362915 C335.86094135 90.63410002 339.76594825 81.137153 343.69140625 71.6484375 C344.29835831 70.18093048 344.29835831 70.18093048 344.91757202 68.68377686 C346.85663453 63.99610804 348.79711319 59.30903471 350.74023438 54.62304688 C358.25993919 36.45431909 365.61154282 18.22486106 373 0 C425.8 0 478.6 0 533 0 C533 3.63 533 7.26 533 11 C531.71867187 11.03738281 530.43734375 11.07476562 529.1171875 11.11328125 C507.63404806 11.39862929 507.63404806 11.39862929 489.0703125 20.7890625 C474.20751295 36.76194667 478.85299007 65.5021285 478.87060547 85.73242188 C478.86924757 88.37431456 478.86750099 91.01620446 478.86529541 93.65809631 C478.86088528 100.04336964 478.8617928 106.42863112 478.86470805 112.81390488 C478.86698096 118.01065741 478.86726649 123.20740666 478.86618423 128.40415955 C478.866031 129.1482224 478.86587777 129.89228525 478.86571989 130.65889546 C478.86540012 132.17118442 478.8650759 133.68347338 478.8647473 135.19576234 C478.86190645 149.32437977 478.86515756 163.45299068 478.87054767 177.58160704 C478.87501443 189.66329468 478.8742381 201.7449727 478.86962891 213.82666016 C478.86425841 227.91014975 478.86218101 241.99363365 478.86524117 256.07712412 C478.86555967 257.5833629 478.86587404 259.08960167 478.86618423 260.59584045 C478.86633851 261.33663604 478.86649279 262.07743163 478.86665174 262.84067556 C478.86750948 268.02170972 478.86607013 273.20274021 478.86370468 278.3837738 C478.86087887 284.71126646 478.86170292 291.03874673 478.86698543 297.366238 C478.86958532 300.58485536 478.87013886 303.80344832 478.86733627 307.02206612 C476.63253564 338.7167359 476.63253564 338.7167359 487.5 366.5546875 C497.32852913 375.70067988 509.66030201 377.21513534 522.5625 377.625 C523.57119141 377.66367187 524.57988281 377.70234375 525.61914062 377.7421875 C528.07915999 377.83545838 530.53955365 377.91876893 533 378 C533 381.96 533 385.92 533 390 C465.68 390 398.36 390 329 390 C329 386.04 329 382.08 329 378 C330.52109375 377.96261719 332.0421875 377.92523438 333.609375 377.88671875 C355.85205131 377.68368321 355.85205131 377.68368321 374.78125 367.25 C383.95524308 356.09730253 383.15532231 340.95527125 383.12025452 327.28804016 C383.12110894 326.05357578 383.12196337 324.8191114 383.12284368 323.54723901 C383.12419746 320.15159781 383.12110491 316.7560153 383.11606562 313.36038125 C383.11172199 309.68705702 383.11321031 306.0137344 383.1139679 302.34040833 C383.11449066 295.98633209 383.11136976 289.63226616 383.10573006 283.27819252 C383.09758146 274.09142095 383.0949964 264.90465434 383.09374207 255.71787956 C383.09155682 240.81069618 383.08491104 225.90351829 383.07543945 210.99633789 C383.06625169 196.52075223 383.05917753 182.04516807 383.05493164 167.56958008 C383.05466892 166.67637136 383.05440619 165.78316265 383.05413551 164.862887 C383.05283041 160.38164261 383.05156672 155.90039822 383.05032361 151.41915381 C383.03996741 114.279432 383.02236345 77.13971643 383 40 C382.35559778 41.54674329 382.35559778 41.54674329 381.69817734 43.12473392 C380.08261917 47.00248801 378.4670052 50.88021884 376.85137558 54.75794315 C376.15618552 56.42651224 375.46100998 58.09508737 374.76585007 59.76366901 C369.60200124 72.15833755 364.43492771 84.55163077 359.25 96.9375 C358.70388062 98.24243408 358.70388062 98.24243408 358.14672852 99.57373047 C351.89640886 114.50571612 345.60665588 129.42085485 339.30334473 144.33053589 C333.50709784 158.04186677 327.74078752 171.76536075 322 185.5 C315.46876431 201.12575967 308.89725019 216.73406213 302.30224609 232.33300781 C296.50637488 246.04351834 290.74043969 259.76619291 285 273.5 C278.4741025 289.11298823 271.90828716 304.70867454 265.31835938 320.29473877 C258.40720767 336.64246355 251.54089815 353.00866755 244.69726562 369.38476562 C244.33612671 370.24872955 243.97498779 371.11269348 243.60290527 372.00283813 C242.93469694 373.60164202 242.26678418 375.20056948 241.59924316 376.7996521 C239.75624688 381.21006833 237.88947367 385.60928501 236 390 C233.36 390 230.72 390 228 390 C223.61890025 381.70790361 219.96914634 373.12428597 216.30374146 364.5010376 C215.1517972 361.79100661 213.99613858 359.08258483 212.83959961 356.37451172 C211.13826812 352.39016658 209.43833861 348.40522729 207.73925781 344.41992188 C202.86110414 332.98225146 197.96055726 321.55415686 193.0625 310.125 C192.5505307 308.93001892 192.0385614 307.73503784 191.51107788 306.50384521 C184.48836714 290.11287505 177.43973946 273.73339953 170.36102295 257.36654663 C163.60252852 241.73804629 156.8894565 226.09032017 150.1875 210.4375 C142.48459683 192.44692538 134.75919052 174.46637029 127 156.5 C119.14194711 138.30224438 111.30987337 120.0934765 103.5 101.875 C103.02256348 100.76181396 102.54512695 99.64862793 102.05322266 98.50170898 C96.21816388 84.89499913 90.41417463 71.27543579 84.63476562 57.64501953 C83.98693433 56.11751124 83.33908692 54.59000978 82.69122314 53.06251526 C81.1272971 49.3750886 79.56358645 45.68757067 78 42 C77.97707954 78.28975394 77.95947431 114.57950661 77.94893467 150.8692663 C77.94768406 155.15975176 77.94638973 159.45023721 77.94506836 163.74072266 C77.94480605 164.59483213 77.94454374 165.4489416 77.94427348 166.32893318 C77.93992966 180.13386013 77.93204922 193.93878289 77.9228472 207.74370736 C77.91347479 221.92317996 77.9079368 236.10265038 77.90591151 250.28212595 C77.90454372 259.02199849 77.90023359 267.76185917 77.89208353 276.50172806 C77.88677178 282.50605602 77.88520572 288.51037791 77.88649862 294.51470804 C77.88713511 297.9718032 77.88620336 301.42887773 77.88079453 304.88596916 C76.26382907 337.23758961 76.26382907 337.23758961 90.55078125 364.80859375 C103.04537096 375.98796349 118.04430054 376.67166067 134 378 C134 381.96 134 385.92 134 390 C89.78 390 45.56 390 0 390 C0 386.04 0 382.08 0 378 C1.29292969 377.91363281 2.58585937 377.82726563 3.91796875 377.73828125 C18.2658849 376.63789188 33.57237986 374.50758977 43.70703125 363.07421875 C50.92500099 353.07870116 53.75685763 342.20929688 53.61473083 330.04562378 C53.62041409 328.80904467 53.62609735 327.57246556 53.63195282 326.29841435 C53.64255051 322.90521669 53.63102407 319.51346755 53.6096462 316.12041354 C53.59203037 312.44621511 53.60355797 308.7720864 53.61131287 305.09786987 C53.6219433 297.91624411 53.60610422 290.73491348 53.5811746 283.55333267 C53.55314167 275.17955067 53.55190126 266.80582715 53.55173159 258.43200602 C53.55054622 243.4863461 53.52563096 228.54082104 53.48706055 213.59521484 C53.4497066 199.11147443 53.42846373 184.62783203 53.42553711 170.14404297 C53.42526289 168.80538623 53.42526289 168.80538623 53.42498314 167.43968593 C53.42480417 166.5487498 53.4246252 165.65781368 53.4244408 164.73987949 C53.42407537 162.94579244 53.42370299 161.15170538 53.42332363 159.35761833 C53.42304536 158.03026074 53.42304536 158.03026074 53.42276147 156.67608785 C53.41918639 142.84509725 53.4007338 129.01412165 53.38083039 115.18314638 C53.3738235 110.18079216 53.3690318 105.17844149 53.36586904 100.17608343 C53.3608079 92.24121025 53.34931042 84.30640497 53.32456874 76.37156664 C53.31339146 72.74892112 53.3052298 69.12634175 53.30570221 65.50367737 C53.30606999 61.56919491 53.29085846 57.63485785 53.27415466 53.70040894 C53.27656975 52.56625136 53.27898483 51.43209379 53.2814731 50.26356781 C53.21320783 39.96550502 52.98362469 30.18619532 45.5 22.44921875 C33.05494641 10.839597 15.96638683 11.59424358 0 11 C0 7.37 0 3.74 0 0 Z " fill="#DE9F29" transform="translate(6525,5574)"/>
<path d="M0 0 C52.8 0 105.6 0 160 0 C164.4645872 9.56697257 168.78789879 19.0709113 172.8125 28.8125 C173.95434089 31.55841655 175.09974476 34.30283775 176.24609375 37.046875 C176.5465863 37.76641861 176.84707886 38.48596222 177.15667725 39.22731018 C180.83946256 48.02992219 184.60855713 56.79544475 188.375 65.5625 C195.33932722 81.7802936 202.2741899 98.01039132 209.1875 114.25 C209.66983093 115.38293488 210.15216187 116.51586975 210.64910889 117.68313599 C213.11449448 123.47418616 215.57955073 129.26537645 218.04443359 135.05664062 C220.95177214 141.88715643 223.86043725 148.71710668 226.76953125 155.546875 C227.24362427 156.65997543 227.71771729 157.77307587 228.20617676 158.91990662 C230.57945597 164.49183825 232.95318097 170.0635794 235.32763672 175.63500977 C239.84305797 186.23133114 244.35395888 196.82952545 248.85122681 207.43356323 C250.72733103 211.85710863 252.60541299 216.27981351 254.48394203 220.70232964 C255.76978831 223.7299607 257.0541058 226.75822694 258.33642578 229.78735352 C259.7488916 233.12372733 261.16505391 236.45850905 262.58203125 239.79296875 C263.00172684 240.78709274 263.42142242 241.78121674 263.85383606 242.8054657 C264.2408519 243.71423965 264.62786774 244.62301361 265.02661133 245.55932617 C265.36138992 246.34909348 265.69616852 247.13886078 266.04109192 247.95256042 C267.0458552 250.23067212 267.0458552 250.23067212 269 253 C269.54805298 251.64080444 269.54805298 251.64080444 270.10717773 250.25415039 C277.46751968 232.00974797 284.88679299 213.79152026 292.4375 195.625 C297.94806355 182.36687276 303.43374564 169.09923257 308.875 155.8125 C314.72429444 141.53098748 320.60342835 127.2620571 326.5 113 C332.67438151 98.06539944 338.82877969 83.12287971 344.95513916 68.16851807 C351.56507667 52.0357105 358.22014299 35.921639 364.8828125 19.81054688 C365.27594635 18.85967194 365.6690802 17.908797 366.0741272 16.92910767 C366.81081489 15.14739967 367.54775768 13.36579712 368.28500366 11.58432007 C368.61424835 10.78805206 368.94349304 9.99178406 369.28271484 9.17138672 C369.5675473 8.48293671 369.85237976 7.79448669 370.14584351 7.08517456 C371.11099364 4.72904132 372.05438371 2.36404071 373 0 C425.8 0 478.6 0 533 0 C533 3.63 533 7.26 533 11 C531.71867187 11.03738281 530.43734375 11.07476562 529.1171875 11.11328125 C507.28415228 11.68144651 507.28415228 11.68144651 488.25 21.3125 C478.01874121 33.53317022 478.84407246 49.07981537 478.86628723 64.24842834 C478.86402167 65.40923697 478.86175612 66.5700456 478.85942191 67.76603025 C478.85314163 71.61754945 478.85390741 75.46903292 478.85473633 79.32055664 C478.85228163 82.09787121 478.84836546 84.87518334 478.84455872 87.65249634 C478.83629131 94.39185609 478.83350564 101.1312071 478.83294634 107.8705715 C478.83246925 113.35588414 478.83040496 118.84119393 478.82724571 124.32650566 C478.81844933 139.91958352 478.81382467 155.51265453 478.81457619 171.10573489 C478.81461614 171.94442392 478.8146561 172.78311295 478.81469727 173.6472168 C478.81473815 174.48694428 478.81477903 175.32667176 478.81482115 176.19184553 C478.81522719 189.7863246 478.80566546 203.38077592 478.7915589 216.97524697 C478.77714851 230.97435069 478.77029129 244.97344092 478.77115268 258.97255224 C478.77148307 266.81568319 478.76880573 274.65878504 478.75797462 282.50190926 C478.74880794 289.18196389 478.74674439 295.86197626 478.75348405 302.54203451 C478.75671865 305.94102265 478.75580222 309.33986479 478.7481308 312.73885536 C478.72300865 324.64980673 478.73357165 336.51965868 479.8276825 348.3891449 C479.89683485 349.18487917 479.9659872 349.98061344 480.03723508 350.80046088 C480.92557572 359.02940469 484.24669387 363.99533959 490.5625 369.31640625 C499.90529034 376.56139413 510.97321342 377.11378453 522.375 377.5625 C523.39722656 377.60568359 524.41945312 377.64886719 525.47265625 377.69335938 C527.98163405 377.79887713 530.4908007 377.89988763 533 378 C533 381.96 533 385.92 533 390 C465.68 390 398.36 390 329 390 C329 386.04 329 382.08 329 378 C330.43730469 377.96261719 331.87460937 377.92523438 333.35546875 377.88671875 C355.06941273 377.5908672 355.06941273 377.5908672 374 368 C384.26741535 355.25645122 383.16098114 338.61203245 383.12025452 323.07913208 C383.12110894 321.85843863 383.12196337 320.63774519 383.12284368 319.38006103 C383.12419287 316.03680362 383.12111813 312.69360639 383.11606562 309.35035634 C383.11170819 305.72821009 383.11321127 302.10606538 383.1139679 298.48391724 C383.1144898 292.22320246 383.11137797 285.96249818 383.10573006 279.70178604 C383.09756968 270.65007882 383.0949952 261.59837663 383.09374207 252.54666613 C383.09155865 237.85744252 383.08491788 223.16822449 383.07543945 208.47900391 C383.06624692 194.21793648 383.05917511 179.95687058 383.05493164 165.69580078 C383.05466892 164.81532822 383.05440619 163.93485566 383.05413551 163.02770211 C383.05283038 158.61020591 383.05156669 154.1927097 383.05032361 149.77521348 C383.03997312 113.18347171 383.02237421 76.59173629 383 40 C380.4584031 46.01480353 377.91737945 52.02984903 375.37670898 58.04504395 C374.51680729 60.08074101 373.65678603 62.11638757 372.79663086 64.15197754 C366.836782 78.2564882 360.90423209 92.3721207 355 106.5 C354.1950672 108.4252688 353.39009486 110.35052108 352.58508301 112.27575684 C352.22241585 113.14312218 351.85974869 114.01048752 351.48609161 114.90413666 C346.12374092 127.72740999 340.71480331 140.53086473 335.30224609 153.33300781 C329.50637488 167.04351834 323.74043969 180.76619291 318 194.5 C311.46876431 210.12575967 304.89725019 225.73406213 298.30224609 241.33300781 C292.13149059 255.93033153 285.99722638 270.54253211 279.88626099 285.16497803 C274.10393386 298.99943435 268.27989821 312.81581692 262.4375 326.625 C253.51881915 347.70616649 244.73514794 368.84220808 236 390 C233.36 390 230.72 390 228 390 C222.73529105 380.03549871 218.35189461 369.72420586 213.94683838 359.35998535 C212.58623673 356.15879883 211.22113892 352.95956092 209.85498047 349.76074219 C207.90170812 345.18623259 205.95017658 340.61098646 204 336.03515625 C199.05472667 324.43451669 194.09062422 312.84193967 189.125 301.25 C188.37505264 299.49861725 188.37505264 299.49861725 187.60995483 297.71185303 C179.80039253 279.47716499 171.91980345 261.27421036 164.00592041 243.08459473 C156.27071444 225.29978962 148.64528364 207.47022481 141.0642395 189.61923218 C133.44088725 171.67351244 125.7197685 153.77228022 117.9418335 135.89306641 C108.76354182 114.79340088 99.67781358 93.65491726 90.63433838 72.49714661 C87.87305109 66.03719358 85.10611351 59.57966841 82.33847046 53.12243652 C81.92087306 52.14809032 81.50327566 51.17374413 81.0730238 50.16987228 C80.04869999 47.77990737 79.02435823 45.38995016 78 43 C77.95417575 79.96076331 77.91895705 116.92152232 77.89786934 153.88230831 C77.89536807 158.25047772 77.89277941 162.61864708 77.89013672 166.98681641 C77.88934979 168.29119716 77.88934979 168.29119716 77.88854696 169.62192903 C77.87985538 183.68364141 77.8640923 197.74533735 77.84569441 211.80703999 C77.82696061 226.24640502 77.81587593 240.68576148 77.81182301 255.12513816 C77.80908516 264.02779176 77.80045243 272.93039891 77.78416707 281.8330382 C77.77355719 287.94621716 77.7704084 294.05937226 77.77299725 300.17255975 C77.77427233 303.69423934 77.77238226 307.21583802 77.76158905 310.73750305 C77.75157447 314.56872807 77.75405488 318.39975759 77.75949097 322.23098755 C77.75075244 323.87405323 77.75075244 323.87405323 77.74183738 325.55031216 C77.79771034 340.21311521 79.17407963 354.17407963 90 365 C102.80882696 375.31966221 118.12800383 376.86628599 134 378 C134 381.96 134 385.92 134 390 C89.78 390 45.56 390 0 390 C0 386.04 0 382.08 0 378 C1.29292969 377.91363281 2.58585937 377.82726563 3.91796875 377.73828125 C18.19972654 376.64296579 33.80415352 374.55569545 43.7421875 362.96875 C49.15269901 355.32404717 53.12124586 346.31448776 53.12863445 336.87173462 C53.13347112 335.30858599 53.13347112 335.30858599 53.1384055 333.7138586 C53.1368569 332.57030187 53.1353083 331.42674513 53.13371277 330.24853516 C53.1371111 328.42463556 53.1371111 328.42463556 53.14057809 326.5638895 C53.14581997 323.1870061 53.14656182 319.81017586 53.14538372 316.43329215 C53.14517984 312.7916499 53.15069737 309.15001562 53.15544128 305.50837708 C53.16375266 298.37141583 53.16649639 291.23446284 53.16705366 284.09749717 C53.16752881 278.29344133 53.1695835 272.48938822 53.17275429 266.68533325 C53.18156396 250.22383142 53.18617344 233.76233612 53.18542381 217.30083191 C53.18536388 215.96928584 53.18536388 215.96928584 53.18530273 214.61083984 C53.18524141 213.27766372 53.18524141 213.27766372 53.18517885 211.91755474 C53.1847728 197.5281834 53.1943312 183.13883828 53.2084411 168.74947453 C53.22282011 153.96872588 53.22971037 139.18799001 53.22884732 124.40723419 C53.22851577 116.11150506 53.23124428 107.81580339 53.24202538 99.52008057 C53.25115068 92.45310692 53.25328917 85.38617316 53.24651595 78.31919616 C53.24326032 74.71672981 53.24315914 71.11433987 53.2518692 67.51188087 C53.26123674 63.59699694 53.25493278 59.68222342 53.24723816 55.76733398 C53.25238172 54.64162302 53.25752529 53.51591206 53.26282471 52.35608864 C53.21639556 41.62450091 53.1431471 30.13010432 45.16015625 22.1640625 C34.81542473 13.29714977 22.169417 12.04550147 9.0625 11.4375 C7.75055664 11.37272461 7.75055664 11.37272461 6.41210938 11.30664062 C4.27488005 11.20153099 2.13745762 11.10036015 0 11 C0 7.37 0 3.74 0 0 Z " fill="#DE9F29" transform="translate(4631,5574)"/>
<path d="M0 0 C1.14971283 -0.00570007 2.29942566 -0.01140015 3.48397827 -0.01727295 C5.91281225 -0.0266774 8.34165872 -0.0332387 10.77050781 -0.03710938 C14.40193445 -0.04671887 18.03277058 -0.07774698 21.6640625 -0.109375 C41.1843666 -0.19879443 60.53214181 1.07972104 79.5234375 5.890625 C80.54904785 6.14553711 81.5746582 6.40044922 82.63134766 6.66308594 C131.78080774 19.36983438 171.8792167 52.07523268 197.8984375 95.265625 C225.53547076 142.49442417 230.96039437 203.16114074 217.51513672 255.71289062 C208.01975904 290.527 190.94688108 321.27749721 165.8359375 347.203125 C165.32949707 347.73534668 164.82305664 348.26756836 164.30126953 348.81591797 C127.94141467 386.9663474 76.71072312 403.88287595 24.8359375 405.203125 C-33.62143753 406.09553589 -87.44018037 390.77262269 -130.78125 350.52734375 C-134.13785769 347.2532756 -137.1741403 343.81053113 -140.1640625 340.203125 C-140.92203125 339.33300781 -141.68 338.46289062 -142.4609375 337.56640625 C-174.73649856 300.02852546 -190.59724406 251.96159119 -190.47973633 202.77807617 C-190.47658578 200.03588671 -190.50010803 197.29479097 -190.52539062 194.55273438 C-190.58354343 178.34893586 -188.82147364 162.32929594 -184.9140625 146.578125 C-184.70499268 145.7231543 -184.49592285 144.86818359 -184.28051758 143.98730469 C-175.99763085 111.4548816 -159.26149539 83.33343078 -136.1640625 59.203125 C-135.64360352 58.65011719 -135.12314453 58.09710938 -134.58691406 57.52734375 C-122.06457526 44.26399387 -108.04119029 33.20978658 -92.1640625 24.203125 C-91.5954248 23.87505859 -91.02678711 23.54699219 -90.44091797 23.20898438 C-62.95877117 7.4446161 -31.56658405 0.12466052 0 0 Z M-43.6015625 45.203125 C-82.79811068 84.51315479 -86.34331098 150.04200722 -86.4140625 202.328125 C-86.31436715 253.49876252 -81.45810268 313.244394 -47.1640625 354.203125 C-46.37644531 355.19570313 -45.58882812 356.18828125 -44.77734375 357.2109375 C-32.00465577 371.83556977 -12.29385643 380.58852389 6.8359375 382.203125 C32.46798952 383.56397723 54.16438145 378.52723496 74.16796875 361.68359375 C108.04469826 330.18765928 116.37645451 276.9009741 118.8359375 233.203125 C118.98008251 228.63634049 119.02195848 224.07277781 119.0390625 219.50390625 C119.04603149 218.24153641 119.05300049 216.97916656 119.06018066 215.67854309 C119.07747893 211.62419936 119.08435687 207.56999744 119.0859375 203.515625 C119.08652664 202.82511803 119.08711578 202.13461105 119.08772278 201.42317963 C119.10088703 179.56204305 118.68917942 157.90847012 115.8359375 136.203125 C115.69140137 135.08035156 115.54686523 133.95757812 115.39794922 132.80078125 C110.65723528 97.47904994 98.33457788 57.7511741 68.8359375 35.203125 C32.62924767 11.16675108 -12.47727465 15.06776599 -43.6015625 45.203125 Z " fill="#DB9C2A" transform="translate(5387.1640625,5567.796875)"/>
<path d="M0 0 C0.66209473 0.16097168 1.32418945 0.32194336 2.00634766 0.48779297 C12.5610247 3.07245982 22.19886725 7.13493221 32.03125 11.7109375 C36.8050742 13.93136435 41.63084951 15.99835575 46.5 18 C47.19996094 18.29052246 47.89992187 18.58104492 48.62109375 18.88037109 C55.84149794 21.83466023 63.1860239 23.71163595 70.8125 21 C77.84874965 14.56685747 79.75085869 5.9463051 82 -3 C85.3 -3 88.6 -3 92 -3 C95.22831272 104.87903466 95.22831272 104.87903466 95 127 C90.71 127 86.42 127 82 127 C81.63648437 125.51371094 81.27296875 124.02742188 80.8984375 122.49609375 C72.00596528 86.83052259 54.95158645 54.65085186 22.57421875 35.06640625 C-0.7635805 21.40541095 -25.53003557 16.19188158 -52 23 C-66.45141977 27.73872137 -78.2319409 36.11476574 -85.75 49.49609375 C-91.32884113 60.67120988 -92.09061812 71.90938746 -89 84 C-85.73689158 92.87433202 -80.58089439 99.33742785 -74 106 C-73.45859375 106.60199219 -72.9171875 107.20398437 -72.359375 107.82421875 C-60.59929857 120.56430154 -44.11568176 128.1144095 -29 136 C-27.2662915 136.90806396 -27.2662915 136.90806396 -25.49755859 137.83447266 C-14.82771096 143.4198686 -4.14964902 148.99035734 6.671875 154.27734375 C28.80964534 165.09888418 50.32525566 177.08178725 70 192 C70.97195313 192.72960938 71.94390625 193.45921875 72.9453125 194.2109375 C97.64388666 213.5809563 113.622318 237.64645835 118.61328125 268.83203125 C122.02509615 299.94178938 115.27712653 329.76320215 95.875 354.5 C70.69638938 383.88234387 39.39316465 401.04488412 0.6640625 404.68359375 C-32.03185611 407.18386988 -61.15190575 400.14868687 -91.30566406 388.11254883 C-107.25193955 381.64506881 -107.25193955 381.64506881 -123.796875 384.1640625 C-133.62898309 389.13326308 -137.9923202 395.42649451 -143 405 C-146.96 405 -150.92 405 -155 405 C-155 356.16 -155 307.32 -155 257 C-151.04 257 -147.08 257 -143 257 C-142.30777344 259.7225 -142.30777344 259.7225 -141.6015625 262.5 C-133.52202066 293.46947302 -122.2974401 321.38873767 -100 345 C-99.27554688 345.80050781 -98.55109375 346.60101563 -97.8046875 347.42578125 C-77.54940448 368.95131084 -49.44706958 381.05279237 -20.2734375 383.28515625 C0.14094599 383.82484685 20.70791338 377.97900086 35.75 363.75 C46.55374231 352.30846969 51.71165668 339.49281607 51.53662109 323.80566406 C50.78774601 306.35650573 41.47740974 292.46875165 29.09765625 280.66796875 C9.86227136 263.67660878 -14.95646124 252.92568642 -37.7578125 241.63363647 C-51.4405189 234.85307049 -64.88427576 227.83713941 -78 220 C-78.73460449 219.56574707 -79.46920898 219.13149414 -80.22607422 218.68408203 C-102.55638138 205.42212633 -123.84542521 189.11652311 -138 167 C-138.99 165.46085937 -138.99 165.46085937 -140 163.890625 C-154.83431667 139.50390745 -157.92849122 110.67510485 -152.21875 82.96484375 C-145.41446021 55.07312137 -127.10332802 30.26217888 -102.8125 14.875 C-91.83029544 8.39666077 -80.42404616 3.05300793 -68 0 C-66.19208984 -0.44859375 -66.19208984 -0.44859375 -64.34765625 -0.90625 C-44.30618088 -5.27527197 -19.83658721 -5.20684064 0 0 Z " fill="#DA9B29" transform="translate(5816,5568)"/>
<path d="M0 0 C0.66064453 0.16097168 1.32128906 0.32194336 2.00195312 0.48779297 C12.55856713 3.07232617 22.19712529 7.1341215 32.03125 11.7109375 C36.8050742 13.93136435 41.63084951 15.99835575 46.5 18 C47.19996094 18.29052246 47.89992187 18.58104492 48.62109375 18.88037109 C55.8236255 21.82734757 63.32152808 23.8307064 70.875 20.875 C75.95124869 16.39595703 77.93849599 10.92538816 79.75 4.625 C80.08064453 3.52091797 80.08064453 3.52091797 80.41796875 2.39453125 C80.95429264 0.59901212 81.47842566 -1.20014099 82 -3 C85.3 -3 88.6 -3 92 -3 C92.39367126 11.58735574 92.78504169 26.17477131 93.17345428 40.76226807 C93.35390231 47.53718159 93.53512905 54.31207253 93.71826172 61.08691406 C93.89527964 67.63562965 94.0700313 74.18440353 94.24345398 80.73321533 C94.30969014 83.22082493 94.37666187 85.70841507 94.44441223 88.19598389 C94.79634112 101.13537281 95.08369283 114.05550945 95 127 C90.71 127 86.42 127 82 127 C81.38125 124.49792969 81.38125 124.49792969 80.75 121.9453125 C74.2570478 96.36430086 64.88495798 74.6010559 47 55 C46.35675781 54.27425781 45.71351562 53.54851562 45.05078125 52.80078125 C27.11664546 33.62175968 1.15213836 21.23598655 -25 19.83984375 C-44.94891159 19.31845174 -62.48109672 23.91400737 -77.25 37.8125 C-87.07396836 48.09293558 -90.96567516 59.96114119 -91 74 C-90.04893243 87.93520751 -81.41935875 100.05668774 -71.50390625 109.3359375 C-59.60644644 119.41253793 -46.2229862 127.27419456 -32.4375 134.4375 C-30.97394002 135.20636114 -29.51056605 135.97557646 -28.04736328 136.74511719 C-17.71054322 142.16085349 -7.27405404 147.36724305 3.18475342 152.54229736 C33.28300923 167.43822763 62.52083839 183.70475232 87 207 C88.09634766 207.99966797 88.09634766 207.99966797 89.21484375 209.01953125 C107.96027498 226.6513725 118.28459861 253.6909482 119.21875 279.0625 C120.00194087 312.72784088 109.1630922 341.02420423 86.00097656 365.3972168 C59.68394691 392.30502193 24.55934465 404.50305624 -12.62573242 405.28564453 C-39.80036767 405.52399952 -63.13803187 398.83811119 -88.28125 389.1484375 C-105.69228414 381.97867146 -105.69228414 381.97867146 -123.80859375 383.8671875 C-133.17158031 388.70723403 -138.37656321 395.75312643 -143 405 C-146.96 405 -150.92 405 -155 405 C-155 356.16 -155 307.32 -155 257 C-151.04 257 -147.08 257 -143 257 C-142.56429687 258.69125 -142.12859375 260.3825 -141.6796875 262.125 C-138.40316456 274.67959781 -135.13679776 287.06232809 -130 299 C-129.70512695 299.68852051 -129.41025391 300.37704102 -129.10644531 301.08642578 C-122.88629196 315.39277848 -115.12843567 328.08895966 -105 340 C-104.37609375 340.75796875 -103.7521875 341.5159375 -103.109375 342.296875 C-83.62518711 365.26603959 -54.72176552 379.87669583 -25 383 C-4.19892735 384.52918258 16.94938492 379.67167496 33.21484375 366.16015625 C42.65719599 357.29775655 50.3815943 344.47884142 51.23828125 331.34765625 C51.69574282 313.76217402 46.56558688 299.24745024 34.35864258 286.33740234 C12.95469752 264.44708467 -16.87911842 251.9336477 -43.97607422 238.55908203 C-71.25307406 225.07896469 -97.73614963 209.95421211 -120 189 C-120.66257813 188.401875 -121.32515625 187.80375 -122.0078125 187.1875 C-142.53455384 167.9073219 -153.99798634 140.71633695 -155.12890625 112.8203125 C-155.59970324 85.13744968 -147.61615027 60.39314731 -130 39 C-129.24074219 38.07574219 -128.48148438 37.15148438 -127.69921875 36.19921875 C-112.19163094 18.25508687 -90.85147244 5.96125368 -68 0 C-66.87464844 -0.30164062 -65.74929688 -0.60328125 -64.58984375 -0.9140625 C-44.5561157 -5.3475866 -19.83250484 -5.25603937 0 0 Z " fill="#DA9B29" transform="translate(6143,5568)"/>
<path d="M0 0 C67.65 0 135.3 0 205 0 C205 3.63 205 7.26 205 11 C203.64648438 11.03738281 202.29296875 11.07476562 200.8984375 11.11328125 C177.73154835 11.58081761 177.73154835 11.58081761 158.1875 22.75 C151.31591806 32.95920745 150.85057117 42.32851474 150.85955811 54.32655334 C150.85658698 55.56813987 150.85361586 56.80972639 150.8505547 58.08893675 C150.84339586 61.52358808 150.84069706 64.95818938 150.83995724 68.39284456 C150.83810065 72.10195939 150.83055025 75.81106352 150.82382202 79.52017212 C150.81026226 87.62580952 150.80421755 95.73144197 150.79981136 103.83708882 C150.79704474 108.9028981 150.7928066 113.96870548 150.78830719 119.03451347 C150.7761172 133.07325273 150.76581761 147.11199047 150.7624321 161.1507349 C150.76221253 162.04858862 150.76199297 162.94644233 150.76176675 163.87150374 C150.76154847 164.77144974 150.76133019 165.67139575 150.7611053 166.59861284 C150.76066184 168.42210583 150.76021528 170.24559881 150.75976562 172.0690918 C150.7595442 172.97359845 150.75932277 173.87810509 150.75909463 174.81002104 C150.7551491 189.45652333 150.73770136 204.1029758 150.7144061 218.74945886 C150.69065641 233.80377525 150.67822859 248.85806667 150.67706418 263.91240209 C150.67614941 272.35795554 150.67044719 280.80344407 150.65224457 289.24897957 C150.63679462 296.44246336 150.63175183 303.63586217 150.63998267 310.82935942 C150.64387204 314.49491385 150.64304422 318.16029739 150.62892532 321.82583046 C150.61371207 325.81219552 150.62210351 329.79818062 150.63250732 333.78456116 C150.62445092 334.92574577 150.61639452 336.06693038 150.60809398 337.24269634 C150.66546599 346.69749238 151.04756981 357.70088733 156.9375 365.5 C167.10797736 375.5199629 180.51098048 377.21460698 194.0625 377.625 C195.11888672 377.66367187 196.17527344 377.70234375 197.26367188 377.7421875 C199.84219059 377.83552754 202.4210702 377.91880751 205 378 C205 381.96 205 385.92 205 390 C137.35 390 69.7 390 0 390 C0 386.04 0 382.08 0 378 C1.52109375 377.96261719 3.0421875 377.92523438 4.609375 377.88671875 C26.09055543 377.8087766 26.09055543 377.8087766 44.71484375 368.3984375 C54.40460665 357.64256376 54.30965693 343.93198042 54.25396729 330.13537598 C54.25864726 328.31302736 54.25864726 328.31302736 54.26342177 326.45386362 C54.26995638 323.12617418 54.26768971 319.79871483 54.26144934 316.47104001 C54.25688532 312.86497842 54.263928 309.25893555 54.26940918 305.65287781 C54.27826304 298.60617326 54.27639913 291.55951151 54.2705839 284.51280534 C54.26605155 278.78146731 54.26546128 273.0501412 54.26763153 267.31880188 C54.267938 266.50045857 54.26824446 265.68211526 54.26856022 264.83897367 C54.26919972 263.17608638 54.26984815 261.5131991 54.2705054 259.85031182 C54.27619695 244.28832097 54.26966928 228.72635375 54.25890467 213.16436678 C54.24997023 199.83596577 54.2515226 186.5075996 54.26074219 173.17919922 C54.27146562 157.66967429 54.27564774 142.16017003 54.26951766 126.65064192 C54.26888062 124.99416066 54.26825188 123.33767939 54.26763153 121.68119812 C54.26732298 120.86635717 54.26701443 120.05151622 54.26669653 119.21198311 C54.2649758 113.49314907 54.26787122 107.77432822 54.27259064 102.05549622 C54.27822256 95.07811631 54.2766347 88.10078135 54.26602915 81.12340653 C54.26080338 77.56923204 54.25866232 74.01513227 54.26532745 70.46095848 C54.2724663 66.59547218 54.26389423 62.73010599 54.25396729 58.86462402 C54.26065945 57.20670074 54.26065945 57.20670074 54.26748681 55.51528406 C54.34699347 37.45377151 54.34699347 37.45377151 46.16015625 22.10546875 C35.72316323 13.14060132 22.76821974 12.01744882 9.5625 11.4375 C8.64017578 11.39431641 7.71785156 11.35113281 6.76757812 11.30664062 C4.51185554 11.20145149 2.25594475 11.10031164 0 11 C0 7.37 0 3.74 0 0 Z " fill="#DE9D26" transform="translate(6296,5574)"/>
</svg>
