<?xml version="1.0" encoding="UTF-8"?>
<svg xmlns="http://www.w3.org/2000/svg" xmlns:xlink="http://www.w3.org/1999/xlink" width="630px" height="630px" viewBox="0 0 630 630" version="1.1">
<g id="surface1">
<path style=" stroke:none;fill-rule:nonzero;fill:rgb(90.980393%,67.843139%,16.862746%);fill-opacity:1;" d="M 432.203125 136.734375 C 432.203125 201.5 432.203125 266.265625 432.203125 332.996094 C 387.867188 333.019531 343.53125 333.046875 297.851562 333.074219 C 298.003906 334.238281 298.15625 335.40625 298.3125 336.609375 C 298.546875 338.964844 298.71875 341.320312 298.851562 343.683594 C 298.859375 343.828125 298.859375 343.828125 298.867188 343.972656 C 299 346.457031 299.035156 348.964844 299.003906 351.453125 C 299.003906 351.578125 299 351.707031 299 351.832031 C 298.902344 360.320312 298.117188 368.792969 296.125 379.390625 C 296.097656 379.527344 296.070312 379.664062 296.042969 379.796875 C 294.625 386.902344 292.5625 393.890625 287.929688 405.59375 C 287.90625 405.644531 287.882812 405.695312 287.859375 405.75 C 287.558594 406.445312 287.246094 407.136719 286.929688 407.824219 C 286.90625 407.871094 286.882812 407.921875 286.859375 407.972656 C 285.8125 410.25 284.722656 412.507812 283.503906 414.699219 C 283.386719 414.910156 283.269531 415.125 283.15625 415.339844 C 282.566406 416.441406 281.941406 417.519531 281.296875 418.59375 C 281.152344 418.839844 281.007812 419.085938 280.863281 419.335938 C 280.007812 420.800781 279.085938 422.21875 278.144531 423.628906 C 278.097656 423.695312 278.050781 423.765625 278.003906 423.835938 C 276.839844 425.578125 275.644531 427.289062 274.394531 428.972656 C 274.351562 429.027344 274.3125 429.082031 274.269531 429.140625 C 273.765625 429.816406 273.253906 430.488281 272.730469 431.148438 C 272.625 431.277344 272.523438 431.410156 272.421875 431.539062 C 271.59375 432.601562 270.730469 433.636719 269.855469 434.664062 C 269.820312 434.707031 269.78125 434.753906 269.742188 434.796875 C 269.300781 435.316406 268.855469 435.832031 268.398438 436.335938 C 268.253906 436.496094 268.113281 436.65625 267.972656 436.816406 C 267.382812 437.492188 266.773438 438.15625 266.164062 438.816406 C 266.105469 438.878906 266.105469 438.878906 266.046875 438.945312 C 265.253906 439.800781 264.4375 440.632812 263.613281 441.457031 C 263.398438 441.667969 263.1875 441.878906 262.976562 442.089844 C 262.839844 442.226562 262.703125 442.363281 262.570312 442.5 C 262.476562 442.59375 262.476562 442.59375 262.378906 442.6875 C 262.054688 443.011719 261.726562 443.320312 261.378906 443.617188 C 261.238281 443.742188 261.105469 443.871094 260.976562 444.007812 C 260.746094 444.238281 260.507812 444.453125 260.261719 444.664062 C 260.066406 444.835938 259.875 445.011719 259.683594 445.1875 C 259.335938 445.507812 258.976562 445.804688 258.609375 446.101562 C 258.390625 446.28125 258.183594 446.46875 257.976562 446.660156 C 257.566406 447.035156 257.140625 447.386719 256.707031 447.738281 C 256.570312 447.847656 256.433594 447.960938 256.296875 448.074219 C 255.847656 448.441406 255.394531 448.800781 254.9375 449.15625 C 254.832031 449.238281 254.726562 449.320312 254.621094 449.402344 C 251.878906 451.550781 249.035156 453.558594 246.09375 455.425781 C 246.027344 455.46875 245.960938 455.511719 245.894531 455.554688 C 242.800781 457.519531 239.589844 459.296875 236.328125 460.964844 C 236.28125 460.988281 236.234375 461.011719 236.191406 461.035156 C 234.695312 461.800781 233.179688 462.515625 231.644531 463.199219 C 231.480469 463.269531 231.320312 463.34375 231.160156 463.417969 C 229.515625 464.15625 227.855469 464.847656 226.175781 465.5 C 226.082031 465.539062 225.988281 465.574219 225.894531 465.613281 C 218.457031 468.503906 210.761719 470.664062 187.953125 474.113281 C 187.878906 474.121094 187.800781 474.128906 187.722656 474.132812 C 186.621094 474.21875 185.519531 474.289062 184.417969 474.34375 C 184.300781 474.351562 184.300781 474.351562 184.179688 474.359375 C 176.21875 474.761719 168.226562 474.457031 114.585938 460.042969 C 114.507812 460.003906 114.507812 460.003906 114.425781 459.960938 C 113.152344 459.335938 111.882812 458.691406 110.640625 458 C 110.421875 457.882812 110.203125 457.765625 109.984375 457.648438 C 108.976562 457.105469 107.980469 456.542969 106.992188 455.957031 C 106.726562 455.800781 106.457031 455.644531 106.191406 455.492188 C 105.117188 454.867188 104.058594 454.230469 103.019531 453.554688 C 102.828125 453.429688 102.632812 453.308594 102.441406 453.1875 C 101.507812 452.605469 100.59375 451.996094 99.683594 451.378906 C 99.59375 451.320312 99.59375 451.320312 99.5 451.257812 C 98.421875 450.527344 97.351562 449.78125 96.292969 449.015625 C 96.238281 448.972656 96.179688 448.933594 96.121094 448.890625 C 95.945312 448.761719 95.769531 448.632812 95.59375 448.507812 C 95.53125 448.460938 95.472656 448.417969 95.410156 448.375 C 94.507812 447.71875 93.625 447.042969 92.746094 446.351562 C 92.648438 446.273438 92.546875 446.195312 92.449219 446.117188 C 91.929688 445.710938 91.414062 445.304688 90.902344 444.890625 C 90.855469 444.855469 90.8125 444.820312 90.765625 444.78125 C 90.101562 444.246094 89.441406 443.703125 88.792969 443.152344 C 88.574219 442.964844 88.355469 442.78125 88.136719 442.59375 C 88.097656 442.558594 88.058594 442.527344 88.015625 442.492188 C 87.75 442.265625 87.480469 442.039062 87.210938 441.816406 C 87.234375 441.765625 87.261719 441.714844 87.285156 441.660156 C 87.34375 441.6875 87.402344 441.714844 87.460938 441.746094 C 91.386719 443.625 95.429688 445.242188 99.515625 446.738281 C 99.609375 446.773438 99.609375 446.773438 99.710938 446.808594 C 106.625 449.335938 113.695312 451.398438 148.40625 456.542969 C 148.621094 456.546875 148.839844 456.550781 149.054688 456.558594 C 156.664062 456.726562 164.320312 456.105469 192.183594 447.660156 C 192.261719 447.621094 192.339844 447.585938 192.417969 447.546875 C 193.433594 447.054688 194.425781 446.515625 195.414062 445.96875 C 195.484375 445.929688 195.554688 445.890625 195.628906 445.847656 C 196.667969 445.269531 197.695312 444.667969 198.71875 444.058594 C 199.085938 443.839844 199.457031 443.621094 199.828125 443.402344 C 199.878906 443.375 199.925781 443.347656 199.972656 443.320312 C 200.019531 443.292969 200.066406 443.265625 200.117188 443.238281 C 201.050781 442.691406 201.976562 442.136719 202.894531 441.5625 C 203.210938 441.363281 203.535156 441.167969 203.855469 440.96875 C 204.699219 440.449219 205.542969 439.925781 206.382812 439.394531 C 206.574219 439.273438 206.761719 439.152344 206.953125 439.03125 C 210.253906 436.945312 213.523438 434.78125 216.683594 432.484375 C 217.0625 432.207031 217.445312 431.9375 217.828125 431.667969 C 219.03125 430.824219 220.203125 429.9375 221.367188 429.042969 C 221.550781 428.902344 221.734375 428.765625 221.917969 428.625 C 222.554688 428.140625 223.1875 427.648438 223.816406 427.152344 C 223.945312 427.050781 224.074219 426.949219 224.207031 426.847656 C 224.875 426.324219 225.53125 425.789062 226.183594 425.25 C 226.378906 425.085938 226.574219 424.925781 226.773438 424.765625 C 227.117188 424.484375 227.460938 424.195312 227.804688 423.902344 C 228.066406 423.679688 228.335938 423.457031 228.609375 423.238281 C 228.96875 422.945312 229.3125 422.632812 229.65625 422.316406 C 229.855469 422.136719 230.058594 421.972656 230.265625 421.804688 C 230.695312 421.460938 231.09375 421.085938 231.496094 420.703125 C 231.792969 420.421875 232.097656 420.144531 232.410156 419.875 C 232.644531 419.667969 232.875 419.453125 233.101562 419.238281 C 233.191406 419.15625 233.28125 419.070312 233.367188 418.988281 C 233.421875 418.941406 233.472656 418.890625 233.527344 418.839844 C 233.664062 418.710938 233.800781 418.585938 233.941406 418.457031 C 234.828125 417.640625 235.679688 416.789062 236.53125 415.933594 C 236.746094 415.71875 236.960938 415.503906 237.175781 415.289062 C 237.34375 415.125 237.511719 414.957031 237.675781 414.789062 C 237.757812 414.710938 237.835938 414.632812 237.914062 414.550781 C 238.308594 414.160156 238.695312 413.761719 239.058594 413.339844 C 239.179688 413.199219 239.308594 413.066406 239.441406 412.9375 C 239.671875 412.710938 239.878906 412.476562 240.089844 412.234375 C 240.25 412.050781 240.414062 411.875 240.582031 411.695312 C 240.96875 411.28125 241.335938 410.855469 241.695312 410.414062 C 241.871094 410.199219 242.058594 409.992188 242.25 409.785156 C 242.589844 409.414062 242.90625 409.03125 243.222656 408.640625 C 243.339844 408.5 243.457031 408.359375 243.574219 408.21875 C 244.113281 407.566406 244.636719 406.90625 245.148438 406.234375 C 245.367188 405.945312 245.589844 405.65625 245.816406 405.371094 C 246.273438 404.785156 246.71875 404.195312 247.144531 403.585938 C 247.257812 403.425781 247.371094 403.265625 247.484375 403.105469 C 249.285156 400.558594 250.953125 397.929688 252.476562 395.210938 C 252.515625 395.144531 252.550781 395.078125 252.589844 395.011719 C 255.757812 389.347656 258.136719 383.28125 261.273438 370.371094 C 261.285156 370.308594 261.296875 370.242188 261.308594 370.179688 C 261.378906 369.78125 261.449219 369.382812 261.511719 368.984375 C 261.539062 368.828125 261.566406 368.671875 261.59375 368.511719 C 261.980469 366.390625 262.097656 364.25 262.238281 362.105469 C 262.277344 361.460938 262.324219 360.820312 262.367188 360.179688 C 262.398438 359.703125 262.429688 359.222656 262.457031 358.746094 C 262.53125 357.511719 262.617188 356.28125 262.746094 355.054688 C 263.210938 350.496094 263.292969 346.171875 262.792969 341.621094 C 262.777344 341.503906 262.765625 341.386719 262.753906 341.269531 C 262.6875 340.671875 262.621094 340.074219 262.554688 339.476562 C 262.550781 339.417969 262.542969 339.355469 262.535156 339.292969 C 262.5 338.988281 262.46875 338.679688 262.433594 338.371094 C 261.839844 333.03125 261.511719 327.667969 261.25 322.300781 C 261.238281 322.078125 261.226562 321.859375 261.21875 321.636719 C 260.855469 314.34375 260.726562 306.929688 271.417969 282.507812 C 274.046875 279.605469 276.890625 276.9375 279.820312 274.339844 C 279.96875 274.207031 280.121094 274.074219 280.269531 273.9375 C 285.042969 269.691406 289.972656 265.667969 296.089844 261.230469 C 296.144531 261.195312 296.195312 261.15625 296.25 261.117188 C 296.609375 260.859375 296.609375 260.859375 296.695312 260.859375 C 296.695312 273.269531 296.695312 285.679688 296.695312 298.464844 C 307.40625 298.464844 318.117188 298.464844 329.148438 298.464844 C 329.621094 292.753906 329.621094 292.753906 329.949219 287.039062 C 329.957031 286.898438 329.957031 286.898438 329.964844 286.753906 C 330.023438 285.355469 330.074219 283.957031 330.121094 282.558594 C 330.132812 282.257812 330.140625 281.957031 330.152344 281.660156 C 330.683594 268.550781 330.683594 268.550781 324.355469 256.886719 C 323.320312 255.796875 322.210938 254.800781 321.0625 253.832031 C 320.917969 253.707031 320.769531 253.582031 320.621094 253.457031 C 318.136719 251.34375 315.539062 249.433594 312.769531 247.707031 C 313.171875 247.21875 313.613281 246.777344 314.0625 246.328125 C 314.148438 246.246094 314.234375 246.160156 314.316406 246.074219 C 314.550781 245.839844 314.785156 245.605469 315.019531 245.371094 C 315.273438 245.117188 315.53125 244.863281 315.785156 244.605469 C 316.230469 244.160156 316.675781 243.714844 317.125 243.269531 C 317.789062 242.605469 318.449219 241.941406 319.113281 241.277344 C 320.300781 240.089844 321.484375 238.90625 322.671875 237.722656 C 323.707031 236.683594 324.746094 235.648438 325.78125 234.609375 C 325.851562 234.542969 325.917969 234.472656 325.988281 234.402344 C 326.269531 234.121094 326.546875 233.84375 326.824219 233.566406 C 328.773438 231.617188 330.71875 229.671875 332.667969 227.722656 C 332.722656 227.667969 332.722656 227.667969 332.777344 227.613281 C 333.375 227.015625 333.972656 226.421875 334.566406 225.824219 C 336.933594 223.460938 339.296875 221.09375 341.660156 218.730469 C 342.257812 218.132812 342.855469 217.539062 343.449219 216.941406 C 343.503906 216.886719 343.503906 216.886719 343.5625 216.832031 C 345.539062 214.851562 347.519531 212.871094 349.5 210.890625 C 349.78125 210.613281 350.058594 210.332031 350.335938 210.054688 C 350.40625 209.988281 350.472656 209.917969 350.542969 209.847656 C 351.582031 208.8125 352.617188 207.773438 353.652344 206.738281 C 354.832031 205.558594 356.011719 204.378906 357.1875 203.203125 C 357.847656 202.542969 358.507812 201.882812 359.167969 201.222656 C 359.609375 200.78125 360.046875 200.34375 360.488281 199.902344 C 360.738281 199.652344 360.992188 199.402344 361.242188 199.148438 C 361.46875 198.921875 361.699219 198.691406 361.925781 198.464844 C 362.007812 198.382812 362.089844 198.300781 362.175781 198.21875 C 362.285156 198.105469 362.394531 197.996094 362.507812 197.882812 C 362.570312 197.824219 362.632812 197.761719 362.695312 197.699219 C 362.835938 197.566406 362.835938 197.566406 362.910156 197.566406 C 362.910156 231.042969 362.910156 264.515625 362.910156 299.003906 C 373.417969 299.003906 383.925781 299.003906 394.75 299.003906 C 394.941406 291.804688 394.941406 291.804688 395.117188 284.601562 C 395.121094 284.417969 395.125 284.238281 395.128906 284.054688 C 395.226562 279.777344 395.304688 275.5 395.367188 271.222656 C 395.367188 271.085938 395.371094 270.945312 395.371094 270.804688 C 395.414062 267.878906 395.453125 264.949219 395.488281 262.019531 C 395.503906 260.546875 395.523438 259.074219 395.542969 257.601562 C 395.542969 257.378906 395.546875 257.160156 395.550781 256.9375 C 395.59375 253.535156 395.648438 250.136719 395.742188 246.738281 C 395.746094 246.664062 395.746094 246.59375 395.75 246.519531 C 395.78125 245.351562 395.816406 244.183594 395.847656 243.011719 C 395.945312 239.628906 396.035156 236.246094 396.070312 232.859375 C 396.070312 232.789062 396.074219 232.71875 396.074219 232.644531 C 396.089844 231.097656 396.101562 229.550781 396.109375 228 C 396.113281 227.378906 396.117188 226.753906 396.121094 226.128906 C 396.121094 226.027344 396.121094 226.027344 396.125 225.921875 C 396.136719 223.894531 396.191406 221.867188 396.273438 219.835938 C 396.398438 216.714844 396.457031 213.601562 396.390625 210.476562 C 396.390625 210.414062 396.386719 210.355469 396.386719 210.292969 C 396.257812 203.878906 395.097656 199.136719 388.511719 192.050781 C 386 189.636719 383.324219 187.386719 380.53125 185.308594 C 380.464844 185.257812 380.402344 185.210938 380.335938 185.160156 C 380.21875 185.070312 380.097656 184.984375 379.976562 184.894531 C 379.820312 184.777344 379.820312 184.777344 379.601562 184.570312 C 379.628906 184.300781 379.71875 184.199219 379.925781 184.03125 C 380.222656 183.785156 380.507812 183.527344 380.792969 183.261719 C 381.058594 183.015625 381.324219 182.769531 381.597656 182.53125 C 381.914062 182.257812 382.222656 181.972656 382.527344 181.691406 C 382.84375 181.398438 383.160156 181.109375 383.480469 180.824219 C 383.703125 180.621094 383.925781 180.417969 384.148438 180.214844 C 384.394531 179.988281 384.644531 179.757812 384.902344 179.539062 C 385.21875 179.261719 385.527344 178.976562 385.835938 178.691406 C 386.148438 178.398438 386.46875 178.109375 386.789062 177.824219 C 387.011719 177.625 387.230469 177.421875 387.453125 177.214844 C 387.703125 176.988281 387.953125 176.761719 388.207031 176.539062 C 388.527344 176.261719 388.832031 175.976562 389.140625 175.691406 C 389.457031 175.398438 389.773438 175.113281 390.09375 174.824219 C 390.316406 174.625 390.539062 174.421875 390.761719 174.21875 C 391.007812 173.988281 391.257812 173.761719 391.515625 173.539062 C 391.832031 173.265625 392.140625 172.976562 392.449219 172.691406 C 392.761719 172.402344 393.082031 172.113281 393.402344 171.824219 C 393.625 171.625 393.847656 171.421875 394.066406 171.21875 C 394.316406 170.988281 394.566406 170.761719 394.820312 170.539062 C 395.140625 170.265625 395.445312 169.980469 395.753906 169.691406 C 396.070312 169.402344 396.386719 169.113281 396.707031 168.828125 C 396.929688 168.625 397.152344 168.421875 397.375 168.21875 C 397.625 167.988281 397.871094 167.761719 398.128906 167.539062 C 398.445312 167.265625 398.753906 166.980469 399.0625 166.695312 C 399.378906 166.402344 399.695312 166.113281 400.015625 165.828125 C 400.238281 165.625 400.460938 165.421875 400.679688 165.21875 C 400.929688 164.992188 401.179688 164.761719 401.4375 164.542969 C 401.753906 164.265625 402.0625 163.980469 402.371094 163.695312 C 402.683594 163.402344 403.003906 163.113281 403.320312 162.828125 C 403.546875 162.628906 403.765625 162.421875 403.988281 162.21875 C 404.238281 161.992188 404.488281 161.761719 404.742188 161.542969 C 405.058594 161.265625 405.367188 160.980469 405.675781 160.695312 C 405.992188 160.402344 406.308594 160.117188 406.628906 159.828125 C 406.851562 159.628906 407.074219 159.425781 407.292969 159.222656 C 407.542969 158.992188 407.792969 158.765625 408.050781 158.542969 C 408.367188 158.265625 408.675781 157.980469 408.984375 157.695312 C 409.296875 157.402344 409.617188 157.117188 409.9375 156.828125 C 410.160156 156.628906 410.378906 156.425781 410.601562 156.222656 C 410.851562 155.992188 411.101562 155.765625 411.355469 155.542969 C 411.675781 155.269531 411.980469 154.980469 412.289062 154.695312 C 412.605469 154.40625 412.921875 154.117188 413.242188 153.832031 C 413.464844 153.628906 413.6875 153.425781 413.910156 153.222656 C 414.15625 152.992188 414.40625 152.765625 414.664062 152.542969 C 414.980469 152.269531 415.289062 151.984375 415.597656 151.695312 C 415.910156 151.40625 416.230469 151.117188 416.550781 150.832031 C 416.773438 150.628906 416.996094 150.425781 417.214844 150.222656 C 417.464844 149.992188 417.714844 149.765625 417.96875 149.546875 C 418.289062 149.269531 418.59375 148.984375 418.902344 148.699219 C 419.21875 148.40625 419.535156 148.117188 419.855469 147.832031 C 420.078125 147.628906 420.300781 147.425781 420.523438 147.222656 C 420.769531 146.996094 421.019531 146.765625 421.277344 146.546875 C 421.59375 146.269531 421.902344 145.984375 422.210938 145.699219 C 422.527344 145.40625 422.84375 145.117188 423.164062 144.832031 C 423.386719 144.632812 423.609375 144.429688 423.828125 144.222656 C 424.078125 143.996094 424.328125 143.769531 424.582031 143.546875 C 424.902344 143.269531 425.210938 142.984375 425.519531 142.699219 C 425.832031 142.40625 426.152344 142.121094 426.46875 141.832031 C 426.695312 141.632812 426.914062 141.429688 427.136719 141.226562 C 427.386719 140.996094 427.636719 140.769531 427.890625 140.546875 C 428.207031 140.273438 428.515625 139.984375 428.824219 139.699219 C 429.140625 139.410156 429.457031 139.121094 429.777344 138.835938 C 430 138.632812 430.222656 138.429688 430.441406 138.226562 C 430.746094 137.945312 431.054688 137.671875 431.363281 137.398438 C 431.472656 137.308594 431.578125 137.214844 431.679688 137.121094 C 431.738281 137.070312 431.792969 137.023438 431.851562 136.972656 C 431.902344 136.925781 431.953125 136.882812 432.003906 136.835938 C 432.125 136.734375 432.125 136.734375 432.203125 136.734375 Z M 432.203125 136.734375 "/>
<path style=" stroke:none;fill-rule:nonzero;fill:rgb(92.156863%,69.803923%,18.039216%);fill-opacity:1;" d="M 518.949219 134.042969 C 519.15625 134.347656 519.128906 134.679688 519.132812 135.03125 C 519.136719 135.101562 519.136719 135.171875 519.136719 135.246094 C 519.144531 135.484375 519.144531 135.726562 519.148438 135.964844 C 519.152344 136.136719 519.15625 136.3125 519.15625 136.488281 C 519.195312 138.910156 519.207031 141.332031 519.222656 143.75 C 519.222656 144.101562 519.226562 144.449219 519.226562 144.796875 C 519.261719 150.628906 519.269531 156.464844 519.269531 162.296875 C 519.269531 163.296875 519.269531 164.292969 519.269531 165.289062 C 519.269531 165.363281 519.269531 165.4375 519.269531 165.511719 C 519.269531 165.8125 519.269531 166.113281 519.269531 166.414062 C 519.269531 169.167969 519.269531 171.925781 519.269531 174.683594 C 519.269531 177.359375 519.269531 180.039062 519.269531 182.714844 C 519.269531 182.886719 519.269531 183.058594 519.269531 183.230469 C 519.269531 183.917969 519.269531 184.609375 519.269531 185.300781 C 519.269531 187.230469 519.269531 189.160156 519.269531 191.089844 C 519.269531 191.222656 519.269531 191.222656 519.269531 191.359375 C 519.269531 194.152344 519.269531 196.945312 519.269531 199.738281 C 519.269531 199.832031 519.269531 199.921875 519.269531 200.011719 C 519.269531 201.476562 519.269531 202.941406 519.269531 204.40625 C 519.265625 209.925781 519.265625 215.445312 519.269531 220.964844 C 519.269531 222.5625 519.269531 224.15625 519.269531 225.753906 C 519.269531 225.839844 519.269531 225.929688 519.269531 226.019531 C 519.269531 234.726562 519.269531 243.433594 519.191406 326.5 C 519.183594 330.339844 519.175781 334.183594 519.171875 338.027344 C 519.171875 338.09375 519.171875 338.160156 519.171875 338.226562 C 519.167969 340.066406 519.164062 341.90625 519.160156 343.75 C 519.160156 344.425781 519.160156 345.101562 519.15625 345.777344 C 519.15625 345.898438 519.15625 346.019531 519.15625 346.136719 C 519.15625 347.242188 519.152344 348.347656 519.152344 349.449219 C 519.152344 349.789062 519.152344 350.128906 519.148438 350.464844 C 519.144531 353.882812 519.140625 357.296875 519.132812 360.710938 C 519.132812 360.761719 519.132812 360.816406 519.132812 360.867188 C 519.132812 361.222656 519.132812 361.574219 519.132812 361.925781 C 519.132812 362.023438 519.132812 362.121094 519.128906 362.21875 C 519.128906 362.695312 519.128906 363.171875 519.128906 363.648438 C 519.128906 364.449219 519.125 365.25 519.125 366.050781 C 519.113281 373.257812 519.066406 380.464844 519.027344 387.675781 C 466.925781 387.675781 414.824219 387.675781 361.140625 387.675781 C 361.09375 387.980469 361.042969 388.285156 360.988281 388.597656 C 360.933594 388.832031 360.875 389.058594 360.808594 389.289062 C 360.785156 389.382812 360.785156 389.382812 360.757812 389.480469 C 360.699219 389.683594 360.644531 389.886719 360.585938 390.09375 C 360.566406 390.164062 360.542969 390.234375 360.523438 390.308594 C 360.046875 392.003906 359.527344 393.6875 358.988281 395.363281 C 358.96875 395.433594 358.945312 395.5 358.925781 395.566406 C 357.300781 400.625 355.359375 405.578125 353.222656 410.4375 C 353.1875 410.519531 353.1875 410.519531 353.152344 410.597656 C 351.898438 413.445312 350.550781 416.242188 349.164062 419.023438 C 349.097656 419.160156 349.03125 419.292969 348.964844 419.429688 C 348.414062 420.539062 347.84375 421.632812 347.246094 422.71875 C 347.105469 422.96875 346.972656 423.222656 346.835938 423.476562 C 346.792969 423.558594 346.746094 423.644531 346.703125 423.730469 C 346.636719 423.851562 346.636719 423.851562 346.570312 423.976562 C 346.125 424.8125 345.664062 425.636719 345.191406 426.457031 C 345.058594 426.679688 344.929688 426.90625 344.800781 427.132812 C 344.09375 428.375 343.355469 429.597656 342.609375 430.816406 C 342.539062 430.929688 342.539062 430.929688 342.472656 431.042969 C 342.1875 431.507812 341.898438 431.96875 341.609375 432.433594 C 341.570312 432.492188 341.535156 432.550781 341.496094 432.613281 C 340.835938 433.675781 340.144531 434.714844 339.449219 435.753906 C 339.40625 435.824219 339.359375 435.890625 339.3125 435.960938 C 337.777344 438.261719 336.21875 440.550781 334.535156 442.746094 C 334.191406 443.195312 333.851562 443.648438 333.519531 444.109375 C 333.144531 444.621094 332.753906 445.121094 332.351562 445.613281 C 332.097656 445.917969 331.855469 446.226562 331.617188 446.539062 C 331.183594 447.105469 330.726562 447.65625 330.273438 448.203125 C 330.113281 448.398438 329.953125 448.59375 329.792969 448.789062 C 329.496094 449.15625 329.1875 449.515625 328.875 449.875 C 328.640625 450.148438 328.410156 450.425781 328.183594 450.707031 C 327.867188 451.097656 327.535156 451.464844 327.195312 451.828125 C 326.988281 452.050781 326.789062 452.277344 326.59375 452.507812 C 326.320312 452.816406 326.042969 453.121094 325.765625 453.429688 C 325.710938 453.488281 325.65625 453.550781 325.597656 453.613281 C 325.144531 454.121094 324.6875 454.621094 324.226562 455.121094 C 324.1875 455.164062 324.144531 455.210938 324.101562 455.257812 C 323.578125 455.824219 323.050781 456.382812 322.5 456.921875 C 322.292969 457.125 322.097656 457.332031 321.910156 457.554688 C 321.574219 457.941406 321.214844 458.300781 320.851562 458.660156 C 320.734375 458.777344 320.617188 458.894531 320.5 459.011719 C 320.136719 459.375 319.765625 459.730469 319.375 460.066406 C 319.109375 460.300781 318.863281 460.558594 318.613281 460.8125 C 318.265625 461.164062 317.914062 461.503906 317.539062 461.828125 C 317.261719 462.070312 316.996094 462.324219 316.730469 462.578125 C 316.359375 462.929688 315.988281 463.277344 315.601562 463.609375 C 315.414062 463.773438 315.234375 463.941406 315.054688 464.109375 C 314.703125 464.425781 314.34375 464.726562 313.976562 465.023438 C 313.773438 465.191406 313.578125 465.363281 313.386719 465.539062 C 313.058594 465.835938 312.722656 466.117188 312.378906 466.394531 C 312.132812 466.59375 311.890625 466.800781 311.648438 467.007812 C 311.300781 467.300781 310.953125 467.589844 310.59375 467.875 C 310.433594 468 310.277344 468.128906 310.117188 468.253906 C 309.542969 468.714844 308.96875 469.171875 308.382812 469.617188 C 308.207031 469.75 308.035156 469.882812 307.859375 470.019531 C 307.050781 470.636719 306.234375 471.246094 305.402344 471.839844 C 305.230469 471.964844 305.054688 472.089844 304.882812 472.214844 C 304.824219 472.257812 304.765625 472.300781 304.703125 472.34375 C 304.597656 472.425781 304.488281 472.503906 304.378906 472.582031 C 303.402344 473.289062 302.398438 473.960938 301.394531 474.628906 C 301.3125 474.683594 301.3125 474.683594 301.226562 474.738281 C 295.472656 478.570312 289.398438 481.960938 282.722656 484.890625 C 282.464844 485.003906 282.207031 485.117188 281.949219 485.230469 C 280.371094 485.929688 278.773438 486.570312 277.164062 487.1875 C 277.109375 487.210938 277.050781 487.230469 276.996094 487.253906 C 270.15625 489.886719 263.085938 491.859375 235.0625 495.863281 C 234.804688 495.878906 234.550781 495.890625 234.296875 495.90625 C 229.113281 496.191406 223.851562 496.175781 218.667969 495.894531 C 218.390625 495.878906 218.109375 495.863281 217.832031 495.847656 C 210.855469 495.480469 203.917969 494.714844 175.09375 489.054688 C 175.007812 489.03125 174.921875 489.011719 174.828125 488.988281 C 174.589844 488.925781 174.351562 488.867188 174.109375 488.804688 C 174.03125 488.785156 173.949219 488.761719 173.863281 488.742188 C 173.75 488.710938 173.75 488.710938 173.632812 488.683594 C 173.5625 488.664062 173.496094 488.648438 173.421875 488.628906 C 173.265625 488.574219 173.265625 488.574219 173.1875 488.417969 C 173.257812 488.433594 173.257812 488.433594 173.328125 488.445312 C 180.417969 489.734375 187.632812 490.421875 236.941406 486.574219 C 237.050781 486.546875 237.050781 486.546875 237.164062 486.519531 C 244.09375 484.761719 250.839844 482.355469 258.246094 478.804688 C 258.292969 478.78125 258.339844 478.757812 258.386719 478.734375 C 259.742188 478.070312 261.082031 477.394531 262.398438 476.652344 C 262.480469 476.605469 262.5625 476.558594 262.648438 476.511719 C 263.886719 475.8125 265.113281 475.097656 266.320312 474.34375 C 266.386719 474.304688 266.457031 474.261719 266.523438 474.21875 C 269.621094 472.289062 272.59375 470.152344 275.414062 467.839844 C 275.535156 467.742188 275.65625 467.644531 275.773438 467.546875 C 276.253906 467.160156 276.726562 466.757812 277.195312 466.355469 C 277.375 466.199219 277.554688 466.046875 277.734375 465.894531 C 278.378906 465.347656 278.996094 464.777344 279.609375 464.199219 C 279.726562 464.085938 279.847656 463.976562 279.96875 463.871094 C 280.675781 463.230469 281.347656 462.558594 282.023438 461.882812 C 282.226562 461.679688 282.429688 461.476562 282.632812 461.273438 C 282.761719 461.144531 282.894531 461.011719 283.023438 460.882812 C 283.082031 460.820312 283.144531 460.761719 283.207031 460.699219 C 283.523438 460.382812 283.828125 460.058594 284.117188 459.71875 C 284.332031 459.472656 284.554688 459.238281 284.777344 459.003906 C 285.144531 458.613281 285.503906 458.21875 285.851562 457.8125 C 285.925781 457.730469 285.996094 457.648438 286.066406 457.566406 C 286.476562 457.089844 286.882812 456.609375 287.277344 456.121094 C 287.425781 455.941406 287.570312 455.765625 287.71875 455.589844 C 288.238281 454.964844 288.738281 454.332031 289.222656 453.679688 C 289.398438 453.441406 289.582031 453.203125 289.765625 452.964844 C 290.308594 452.257812 290.835938 451.546875 291.335938 450.808594 C 291.609375 450.402344 291.894531 450.003906 292.183594 449.605469 C 292.597656 449.035156 292.996094 448.453125 293.382812 447.863281 C 293.742188 447.320312 294.105469 446.78125 294.472656 446.238281 C 294.570312 446.09375 294.671875 445.949219 294.769531 445.804688 C 294.917969 445.585938 295.0625 445.367188 295.210938 445.148438 C 295.769531 444.332031 296.308594 443.507812 296.816406 442.660156 C 297.011719 442.339844 297.214844 442.027344 297.417969 441.714844 C 297.457031 441.652344 297.496094 441.59375 297.535156 441.53125 C 297.566406 441.484375 297.597656 441.4375 297.628906 441.386719 C 298.046875 440.742188 298.449219 440.085938 298.851562 439.429688 C 298.902344 439.347656 298.953125 439.265625 299.003906 439.179688 C 299.71875 438.015625 300.417969 436.84375 301.101562 435.664062 C 301.238281 435.425781 301.378906 435.183594 301.515625 434.945312 C 302.511719 433.230469 303.472656 431.492188 304.414062 429.746094 C 304.542969 429.507812 304.667969 429.273438 304.796875 429.039062 C 306.609375 425.695312 308.316406 422.292969 309.871094 418.824219 C 310.03125 418.457031 310.199219 418.09375 310.367188 417.730469 C 313.179688 411.601562 315.597656 405.28125 325.691406 356.914062 C 325.691406 356.839844 325.695312 356.765625 325.699219 356.6875 C 325.757812 355.324219 325.777344 353.957031 325.777344 352.589844 C 325.777344 352.328125 325.777344 352.0625 325.777344 351.796875 C 325.777344 351.585938 325.777344 351.375 325.777344 351.164062 C 325.777344 351.019531 325.777344 350.875 325.777344 350.734375 C 325.773438 349.84375 325.730469 348.960938 325.691406 348.070312 C 378.324219 348.070312 430.960938 348.070312 485.1875 348.070312 C 485.1875 329.59375 485.1875 311.117188 485.1875 292.082031 C 472.375 292.082031 459.558594 292.082031 446.351562 292.082031 C 446.316406 273.050781 446.316406 273.050781 446.308594 265.769531 C 446.304688 263.804688 446.304688 261.84375 446.300781 259.878906 C 446.300781 259.707031 446.300781 259.535156 446.300781 259.363281 C 446.296875 256.71875 446.296875 254.078125 446.289062 251.433594 C 446.289062 251.375 446.289062 251.320312 446.289062 251.261719 C 446.285156 250.34375 446.285156 249.429688 446.28125 248.511719 C 446.277344 245.871094 446.269531 243.234375 446.269531 240.59375 C 446.269531 240.539062 446.269531 240.484375 446.269531 240.429688 C 446.265625 239.238281 446.265625 238.046875 446.265625 236.851562 C 446.265625 236.375 446.265625 235.894531 446.265625 235.414062 C 446.265625 235.363281 446.265625 235.308594 446.265625 235.253906 C 446.265625 233.566406 446.261719 231.875 446.253906 230.183594 C 446.25 228.433594 446.246094 226.683594 446.246094 224.933594 C 446.25 223.921875 446.246094 222.914062 446.242188 221.902344 C 446.238281 221.230469 446.238281 220.554688 446.238281 219.882812 C 446.242188 219.496094 446.242188 219.113281 446.238281 218.726562 C 446.234375 218.378906 446.234375 218.027344 446.238281 217.679688 C 446.238281 217.554688 446.238281 217.429688 446.234375 217.300781 C 446.222656 216.679688 446.253906 216.230469 446.675781 215.746094 C 446.867188 215.546875 447.070312 215.363281 447.273438 215.179688 C 447.367188 215.078125 447.457031 214.976562 447.542969 214.875 C 447.585938 214.828125 447.625 214.78125 447.667969 214.734375 C 447.785156 214.59375 447.902344 214.457031 448.023438 214.320312 C 448.46875 213.792969 448.925781 213.277344 449.394531 212.769531 C 449.714844 212.421875 450.019531 212.066406 450.328125 211.707031 C 450.753906 211.203125 451.1875 210.714844 451.636719 210.230469 C 451.871094 209.980469 452.09375 209.722656 452.308594 209.453125 C 452.660156 209.015625 453.042969 208.605469 453.425781 208.195312 C 453.648438 207.964844 453.859375 207.722656 454.070312 207.480469 C 454.222656 207.304688 454.378906 207.136719 454.535156 206.964844 C 454.769531 206.703125 454.996094 206.4375 455.214844 206.160156 C 455.574219 205.71875 455.960938 205.304688 456.347656 204.890625 C 456.570312 204.65625 456.78125 204.417969 456.992188 204.175781 C 457.144531 204 457.300781 203.828125 457.457031 203.65625 C 457.691406 203.394531 457.917969 203.128906 458.136719 202.855469 C 458.496094 202.410156 458.882812 201.996094 459.273438 201.582031 C 459.609375 201.222656 459.929688 200.851562 460.246094 200.480469 C 460.671875 199.976562 461.105469 199.484375 461.558594 199.003906 C 461.792969 198.753906 462.011719 198.496094 462.226562 198.226562 C 462.582031 197.785156 462.964844 197.378906 463.347656 196.96875 C 463.566406 196.734375 463.78125 196.496094 463.988281 196.253906 C 464.140625 196.078125 464.296875 195.90625 464.453125 195.734375 C 464.691406 195.472656 464.917969 195.207031 465.136719 194.933594 C 465.496094 194.488281 465.882812 194.078125 466.269531 193.660156 C 466.605469 193.300781 466.925781 192.933594 467.246094 192.558594 C 467.671875 192.054688 468.105469 191.5625 468.554688 191.082031 C 468.789062 190.832031 469.011719 190.574219 469.226562 190.304688 C 469.578125 189.867188 469.960938 189.457031 470.347656 189.046875 C 470.566406 188.8125 470.777344 188.574219 470.988281 188.332031 C 471.140625 188.15625 471.296875 187.984375 471.453125 187.816406 C 471.6875 187.554688 471.914062 187.285156 472.132812 187.011719 C 472.492188 186.570312 472.878906 186.15625 473.269531 185.742188 C 473.488281 185.507812 473.699219 185.269531 473.910156 185.023438 C 474.0625 184.851562 474.21875 184.679688 474.375 184.507812 C 474.609375 184.246094 474.835938 183.980469 475.058594 183.707031 C 475.414062 183.261719 475.800781 182.847656 476.191406 182.433594 C 476.527344 182.074219 476.847656 181.703125 477.164062 181.328125 C 477.59375 180.828125 478.027344 180.335938 478.476562 179.855469 C 478.710938 179.601562 478.933594 179.34375 479.148438 179.078125 C 479.5 178.636719 479.882812 178.230469 480.265625 177.820312 C 480.484375 177.585938 480.699219 177.347656 480.910156 177.105469 C 481.0625 176.929688 481.214844 176.757812 481.371094 176.585938 C 481.609375 176.324219 481.835938 176.058594 482.054688 175.785156 C 482.414062 175.339844 482.800781 174.925781 483.191406 174.511719 C 483.527344 174.152344 483.847656 173.78125 484.164062 173.410156 C 484.589844 172.90625 485.023438 172.414062 485.476562 171.933594 C 485.707031 171.683594 485.929688 171.425781 486.144531 171.15625 C 486.5 170.714844 486.878906 170.308594 487.265625 169.898438 C 487.484375 169.664062 487.695312 169.425781 487.90625 169.183594 C 488.058594 169.007812 488.214844 168.835938 488.371094 168.664062 C 488.605469 168.402344 488.832031 168.136719 489.054688 167.863281 C 489.410156 167.421875 489.796875 167.007812 490.1875 166.59375 C 490.40625 166.359375 490.621094 166.117188 490.828125 165.875 C 490.980469 165.699219 491.136719 165.53125 491.292969 165.359375 C 491.53125 165.097656 491.753906 164.832031 491.976562 164.554688 C 492.335938 164.113281 492.722656 163.699219 493.109375 163.285156 C 493.445312 162.925781 493.765625 162.554688 494.085938 162.179688 C 494.511719 161.679688 494.945312 161.1875 495.394531 160.707031 C 495.628906 160.453125 495.851562 160.195312 496.066406 159.925781 C 496.417969 159.488281 496.800781 159.082031 497.1875 158.671875 C 497.40625 158.4375 497.617188 158.199219 497.828125 157.953125 C 497.980469 157.78125 498.136719 157.609375 498.292969 157.4375 C 498.527344 157.175781 498.753906 156.910156 498.972656 156.636719 C 499.332031 156.191406 499.71875 155.777344 500.109375 155.363281 C 500.445312 155.003906 500.765625 154.632812 501.082031 154.257812 C 501.507812 153.757812 501.945312 153.265625 502.394531 152.785156 C 502.628906 152.53125 502.847656 152.273438 503.066406 152.007812 C 503.417969 151.566406 503.800781 151.160156 504.183594 150.75 C 504.402344 150.515625 504.617188 150.277344 504.824219 150.035156 C 504.976562 149.859375 505.132812 149.6875 505.289062 149.515625 C 505.527344 149.253906 505.753906 148.988281 505.972656 148.714844 C 506.332031 148.269531 506.71875 147.855469 507.105469 147.441406 C 507.441406 147.082031 507.761719 146.710938 508.082031 146.339844 C 508.507812 145.835938 508.941406 145.34375 509.390625 144.863281 C 509.625 144.613281 509.847656 144.355469 510.0625 144.085938 C 510.414062 143.644531 510.796875 143.238281 511.183594 142.828125 C 511.402344 142.59375 511.613281 142.355469 511.824219 142.113281 C 511.976562 141.9375 512.132812 141.765625 512.289062 141.59375 C 512.523438 141.332031 512.75 141.066406 512.972656 140.792969 C 513.328125 140.351562 513.714844 139.9375 514.105469 139.523438 C 514.324219 139.289062 514.535156 139.046875 514.746094 138.804688 C 514.898438 138.628906 515.054688 138.460938 515.210938 138.289062 C 515.445312 138.027344 515.671875 137.761719 515.894531 137.484375 C 516.25 137.042969 516.636719 136.628906 517.027344 136.214844 C 517.328125 135.890625 517.617188 135.558594 517.90625 135.226562 C 517.988281 135.128906 518.070312 135.03125 518.152344 134.9375 C 518.234375 134.839844 518.316406 134.742188 518.398438 134.648438 C 518.4375 134.601562 518.476562 134.558594 518.515625 134.511719 C 518.546875 134.472656 518.582031 134.429688 518.617188 134.390625 C 518.722656 134.269531 518.835938 134.15625 518.949219 134.042969 Z M 518.949219 134.042969 "/>
<path style=" stroke:none;fill-rule:nonzero;fill:rgb(81.960785%,55.686277%,15.294118%);fill-opacity:1;" d="M 316.382812 134.121094 C 330.519531 134.121094 344.65625 134.121094 359.21875 134.121094 C 359.082031 134.394531 358.988281 134.527344 358.777344 134.734375 C 358.71875 134.796875 358.65625 134.859375 358.59375 134.921875 C 358.527344 134.988281 358.460938 135.054688 358.390625 135.121094 C 358.320312 135.195312 358.25 135.265625 358.175781 135.339844 C 357.980469 135.535156 357.78125 135.734375 357.582031 135.933594 C 357.367188 136.148438 357.148438 136.363281 356.933594 136.582031 C 356.558594 136.957031 356.179688 137.335938 355.800781 137.714844 C 355.238281 138.277344 354.675781 138.839844 354.113281 139.402344 C 353.109375 140.40625 352.109375 141.410156 351.105469 142.414062 C 350.226562 143.289062 349.347656 144.167969 348.46875 145.046875 C 348.410156 145.105469 348.351562 145.164062 348.292969 145.222656 C 348.054688 145.460938 347.820312 145.695312 347.582031 145.933594 C 345.367188 148.148438 343.148438 150.367188 340.933594 152.582031 C 338.960938 154.550781 336.992188 156.523438 335.019531 158.496094 C 332.808594 160.707031 330.59375 162.921875 328.382812 165.132812 C 328.144531 165.371094 327.910156 165.605469 327.675781 165.839844 C 327.617188 165.898438 327.558594 165.957031 327.5 166.015625 C 326.621094 166.894531 325.742188 167.773438 324.863281 168.652344 C 323.867188 169.648438 322.867188 170.648438 321.871094 171.644531 C 321.3125 172.203125 320.753906 172.761719 320.195312 173.320312 C 319.820312 173.695312 319.449219 174.066406 319.074219 174.441406 C 318.863281 174.652344 318.648438 174.867188 318.4375 175.078125 C 318.207031 175.308594 317.980469 175.535156 317.75 175.761719 C 317.683594 175.832031 317.617188 175.898438 317.546875 175.96875 C 317.488281 176.027344 317.425781 176.085938 317.363281 176.148438 C 317.3125 176.203125 317.261719 176.253906 317.207031 176.308594 C 317.078125 176.417969 317.078125 176.417969 316.921875 176.417969 C 316.863281 172.082031 316.808594 167.742188 316.75 163.40625 C 316.742188 162.890625 316.738281 162.375 316.730469 161.859375 C 316.730469 161.808594 316.726562 161.757812 316.726562 161.703125 C 316.707031 160.003906 316.683594 158.304688 316.660156 156.605469 C 316.636719 154.90625 316.613281 153.210938 316.59375 151.511719 C 316.578125 150.558594 316.566406 149.609375 316.554688 148.660156 C 316.550781 148.292969 316.546875 147.929688 316.539062 147.5625 C 316.539062 147.472656 316.539062 147.386719 316.535156 147.292969 C 316.523438 146.34375 316.511719 145.390625 316.5 144.4375 C 316.496094 144.355469 316.496094 144.273438 316.496094 144.191406 C 316.492188 143.867188 316.488281 143.539062 316.484375 143.214844 C 316.46875 142.296875 316.457031 141.375 316.445312 140.457031 C 316.4375 139.898438 316.429688 139.339844 316.421875 138.78125 C 316.417969 138.40625 316.414062 138.03125 316.410156 137.65625 C 316.40625 137.429688 316.402344 137.203125 316.398438 136.976562 C 316.398438 136.824219 316.394531 136.675781 316.394531 136.527344 C 316.382812 135.726562 316.382812 134.921875 316.382812 134.121094 Z M 316.382812 134.121094 "/>
<path style=" stroke:none;fill-rule:nonzero;fill:rgb(81.960785%,55.29412%,15.294118%);fill-opacity:1;" d="M 264.167969 186.109375 C 278.277344 186.109375 292.386719 186.109375 306.925781 186.109375 C 306.789062 186.382812 306.691406 186.515625 306.484375 186.722656 C 306.421875 186.785156 306.363281 186.84375 306.300781 186.90625 C 306.234375 186.972656 306.164062 187.042969 306.097656 187.109375 C 306.027344 187.179688 305.953125 187.253906 305.882812 187.324219 C 305.683594 187.523438 305.484375 187.722656 305.285156 187.921875 C 305.070312 188.136719 304.855469 188.351562 304.640625 188.566406 C 304.261719 188.945312 303.882812 189.324219 303.503906 189.703125 C 302.941406 190.261719 302.378906 190.824219 301.816406 191.386719 C 300.871094 192.335938 299.925781 193.28125 298.980469 194.226562 C 298.042969 195.160156 297.105469 196.097656 296.171875 197.035156 C 296.113281 197.09375 296.054688 197.152344 295.996094 197.210938 C 295.757812 197.445312 295.523438 197.683594 295.285156 197.917969 C 293.070312 200.136719 290.851562 202.351562 288.632812 204.570312 C 286.660156 206.539062 284.691406 208.511719 282.71875 210.484375 C 282.59375 210.609375 282.464844 210.734375 282.339844 210.863281 C 282.277344 210.925781 282.214844 210.988281 282.148438 211.050781 C 281.835938 211.367188 281.519531 211.683594 281.203125 211.996094 C 281.140625 212.058594 281.078125 212.121094 281.015625 212.1875 C 279.371094 213.832031 277.726562 215.476562 276.078125 217.121094 C 276.019531 217.179688 275.960938 217.238281 275.902344 217.300781 C 275.667969 217.535156 275.429688 217.769531 275.195312 218.003906 C 274.375 218.824219 273.554688 219.644531 272.734375 220.464844 C 271.679688 221.519531 270.625 222.578125 269.566406 223.632812 C 269.007812 224.191406 268.449219 224.75 267.890625 225.308594 C 267.515625 225.683594 267.144531 226.054688 266.769531 226.425781 C 266.558594 226.640625 266.34375 226.851562 266.132812 227.066406 C 265.902344 227.292969 265.675781 227.523438 265.445312 227.75 C 265.378906 227.816406 265.3125 227.886719 265.242188 227.953125 C 265.183594 228.015625 265.121094 228.074219 265.058594 228.136719 C 265.007812 228.1875 264.957031 228.242188 264.902344 228.296875 C 264.78125 228.40625 264.78125 228.40625 264.703125 228.40625 C 264.640625 226.398438 264.605469 224.386719 264.578125 222.378906 C 264.574219 221.953125 264.570312 221.527344 264.5625 221.105469 C 264.550781 220.273438 264.542969 219.445312 264.53125 218.617188 C 264.523438 217.941406 264.511719 217.269531 264.503906 216.59375 C 264.503906 216.496094 264.5 216.398438 264.5 216.300781 C 264.496094 216.101562 264.496094 215.90625 264.492188 215.707031 C 264.476562 214.390625 264.457031 213.070312 264.441406 211.753906 C 264.441406 211.703125 264.441406 211.652344 264.4375 211.597656 C 264.433594 211.179688 264.429688 210.765625 264.421875 210.347656 C 264.402344 208.726562 264.378906 207.105469 264.359375 205.488281 C 264.335938 203.65625 264.3125 201.824219 264.289062 199.992188 C 264.273438 199.027344 264.261719 198.0625 264.25 197.097656 C 264.238281 196.273438 264.226562 195.449219 264.21875 194.628906 C 264.210938 194.210938 264.207031 193.792969 264.199219 193.375 C 264.199219 193.296875 264.199219 193.21875 264.199219 193.136719 C 264.195312 192.996094 264.195312 192.855469 264.191406 192.714844 C 264.164062 190.511719 264.167969 188.3125 264.167969 186.109375 Z M 264.167969 186.109375 "/>
<path style=" stroke:none;fill-rule:nonzero;fill:rgb(81.960785%,55.29412%,15.294118%);fill-opacity:1;" d="M 264.167969 134.121094 C 278.277344 134.121094 292.386719 134.121094 306.925781 134.121094 C 306.789062 134.394531 306.691406 134.527344 306.484375 134.734375 C 306.421875 134.796875 306.363281 134.859375 306.300781 134.921875 C 306.234375 134.988281 306.164062 135.054688 306.097656 135.121094 C 306.027344 135.195312 305.953125 135.265625 305.882812 135.339844 C 305.683594 135.535156 305.484375 135.734375 305.285156 135.933594 C 305.070312 136.148438 304.855469 136.363281 304.640625 136.582031 C 304.261719 136.957031 303.882812 137.335938 303.503906 137.714844 C 302.941406 138.277344 302.378906 138.839844 301.816406 139.402344 C 300.871094 140.347656 299.925781 141.292969 298.980469 142.238281 C 298.042969 143.175781 297.105469 144.109375 296.171875 145.046875 C 296.113281 145.105469 296.054688 145.164062 295.996094 145.222656 C 295.757812 145.460938 295.523438 145.695312 295.285156 145.933594 C 293.070312 148.148438 290.851562 150.367188 288.632812 152.582031 C 286.660156 154.550781 284.691406 156.523438 282.71875 158.496094 C 282.59375 158.621094 282.464844 158.75 282.339844 158.875 C 282.277344 158.9375 282.214844 159 282.148438 159.066406 C 281.835938 159.378906 281.519531 159.695312 281.203125 160.011719 C 281.140625 160.070312 281.078125 160.132812 281.015625 160.199219 C 279.371094 161.84375 277.726562 163.488281 276.078125 165.132812 C 276.019531 165.191406 275.960938 165.25 275.902344 165.3125 C 275.667969 165.546875 275.429688 165.78125 275.195312 166.015625 C 274.375 166.835938 273.554688 167.65625 272.734375 168.476562 C 271.679688 169.53125 270.625 170.589844 269.566406 171.644531 C 269.007812 172.203125 268.449219 172.761719 267.890625 173.320312 C 267.515625 173.695312 267.144531 174.066406 266.769531 174.441406 C 266.558594 174.652344 266.34375 174.867188 266.132812 175.078125 C 265.902344 175.308594 265.675781 175.535156 265.445312 175.761719 C 265.378906 175.832031 265.3125 175.898438 265.242188 175.96875 C 265.183594 176.027344 265.121094 176.085938 265.058594 176.148438 C 265.007812 176.203125 264.957031 176.253906 264.902344 176.308594 C 264.78125 176.417969 264.78125 176.417969 264.703125 176.417969 C 264.640625 174.410156 264.605469 172.402344 264.578125 170.390625 C 264.574219 169.964844 264.570312 169.542969 264.5625 169.117188 C 264.550781 168.289062 264.542969 167.460938 264.53125 166.632812 C 264.523438 165.957031 264.511719 165.28125 264.503906 164.605469 C 264.503906 164.507812 264.5 164.410156 264.5 164.3125 C 264.496094 164.113281 264.496094 163.917969 264.492188 163.722656 C 264.476562 162.402344 264.457031 161.085938 264.441406 159.765625 C 264.441406 159.714844 264.441406 159.664062 264.4375 159.609375 C 264.433594 159.195312 264.429688 158.777344 264.421875 158.359375 C 264.402344 156.742188 264.378906 155.121094 264.359375 153.5 C 264.335938 151.667969 264.3125 149.835938 264.289062 148.007812 C 264.273438 147.039062 264.261719 146.074219 264.25 145.109375 C 264.238281 144.285156 264.226562 143.464844 264.21875 142.640625 C 264.210938 142.222656 264.207031 141.804688 264.199219 141.390625 C 264.199219 141.308594 264.199219 141.230469 264.199219 141.152344 C 264.195312 141.007812 264.195312 140.867188 264.191406 140.726562 C 264.164062 138.523438 264.167969 136.324219 264.167969 134.121094 Z M 264.167969 134.121094 "/>
<path style=" stroke:none;fill-rule:nonzero;fill:rgb(87.058824%,62.352943%,16.078432%);fill-opacity:1;" d="M 501.800781 428.664062 C 505.859375 428.664062 509.921875 428.664062 514.105469 428.664062 C 514.347656 429.152344 514.582031 429.632812 514.789062 430.132812 C 514.816406 430.199219 514.84375 430.265625 514.875 430.332031 C 514.933594 430.472656 514.992188 430.613281 515.050781 430.753906 C 515.210938 431.140625 515.375 431.53125 515.539062 431.917969 C 515.574219 431.996094 515.605469 432.078125 515.640625 432.160156 C 516.003906 433.019531 516.371094 433.878906 516.738281 434.734375 C 517.308594 436.0625 517.875 437.386719 518.441406 438.714844 C 518.476562 438.800781 518.515625 438.886719 518.550781 438.976562 C 518.699219 439.324219 518.847656 439.671875 518.996094 440.023438 C 519.261719 440.644531 519.527344 441.269531 519.792969 441.894531 C 519.832031 441.980469 519.871094 442.070312 519.910156 442.160156 C 520.09375 442.601562 520.28125 443.039062 520.46875 443.476562 C 520.8125 444.289062 521.160156 445.097656 521.503906 445.910156 C 521.5625 446.054688 521.625 446.203125 521.6875 446.347656 C 521.800781 446.617188 521.914062 446.886719 522.03125 447.15625 C 522.078125 447.273438 522.128906 447.390625 522.179688 447.511719 C 522.203125 447.5625 522.226562 447.617188 522.246094 447.671875 C 522.339844 447.914062 522.339844 447.914062 522.488281 448.121094 C 523.183594 446.441406 523.875 444.765625 524.5625 443.085938 C 525.042969 441.917969 525.523438 440.753906 526.003906 439.589844 C 526.449219 438.515625 526.890625 437.441406 527.332031 436.367188 C 527.628906 435.632812 527.929688 434.90625 528.230469 434.175781 C 528.277344 434.0625 528.277344 434.0625 528.328125 433.945312 C 528.476562 433.585938 528.625 433.226562 528.773438 432.867188 C 529.351562 431.46875 529.917969 430.066406 530.484375 428.664062 C 534.546875 428.664062 538.605469 428.664062 542.789062 428.664062 C 542.789062 428.945312 542.789062 429.222656 542.789062 429.511719 C 542.691406 429.511719 542.59375 429.515625 542.492188 429.519531 C 540.839844 429.542969 540.839844 429.542969 539.414062 430.261719 C 538.269531 431.492188 538.625 433.703125 538.628906 435.257812 C 538.628906 435.460938 538.628906 435.664062 538.628906 435.867188 C 538.628906 436.359375 538.628906 436.847656 538.628906 437.339844 C 538.628906 437.738281 538.628906 438.140625 538.628906 438.539062 C 538.628906 438.597656 538.628906 438.652344 538.628906 438.710938 C 538.628906 438.828125 538.628906 438.945312 538.628906 439.0625 C 538.628906 440.148438 538.628906 441.234375 538.628906 442.320312 C 538.628906 443.25 538.628906 444.179688 538.628906 445.109375 C 538.628906 446.191406 538.628906 447.273438 538.628906 448.359375 C 538.628906 448.472656 538.628906 448.589844 538.628906 448.707031 C 538.628906 448.761719 538.628906 448.820312 538.628906 448.878906 C 538.628906 449.277344 538.628906 449.675781 538.628906 450.074219 C 538.628906 450.558594 538.628906 451.046875 538.628906 451.535156 C 538.628906 451.78125 538.628906 452.027344 538.628906 452.277344 C 538.457031 454.714844 538.457031 454.714844 539.292969 456.855469 C 540.046875 457.558594 540.996094 457.675781 541.988281 457.707031 C 542.066406 457.707031 542.144531 457.710938 542.222656 457.714844 C 542.410156 457.722656 542.601562 457.726562 542.789062 457.734375 C 542.789062 458.039062 542.789062 458.34375 542.789062 458.65625 C 537.613281 458.65625 532.4375 458.65625 527.101562 458.65625 C 527.101562 458.351562 527.101562 458.046875 527.101562 457.734375 C 527.21875 457.730469 527.335938 457.730469 527.457031 457.726562 C 529.167969 457.710938 529.167969 457.710938 530.621094 456.90625 C 531.328125 456.050781 531.265625 454.886719 531.265625 453.835938 C 531.265625 453.738281 531.265625 453.644531 531.265625 453.546875 C 531.265625 453.285156 531.265625 453.023438 531.265625 452.761719 C 531.261719 452.480469 531.261719 452.199219 531.261719 451.914062 C 531.265625 451.425781 531.261719 450.9375 531.261719 450.449219 C 531.261719 449.742188 531.261719 449.035156 531.261719 448.332031 C 531.261719 447.183594 531.261719 446.039062 531.261719 444.890625 C 531.261719 443.777344 531.257812 442.664062 531.257812 441.550781 C 531.257812 441.484375 531.257812 441.414062 531.257812 441.34375 C 531.257812 441 531.257812 440.652344 531.257812 440.308594 C 531.257812 437.453125 531.257812 434.597656 531.253906 431.742188 C 531.207031 431.859375 531.207031 431.859375 531.15625 431.980469 C 531.03125 432.277344 530.90625 432.578125 530.78125 432.875 C 530.730469 433.003906 530.675781 433.132812 530.621094 433.261719 C 530.222656 434.214844 529.828125 435.167969 529.429688 436.121094 C 529.386719 436.21875 529.386719 436.21875 529.34375 436.320312 C 528.863281 437.46875 528.378906 438.617188 527.894531 439.765625 C 527.449219 440.820312 527.003906 441.875 526.5625 442.929688 C 526.0625 444.132812 525.554688 445.332031 525.050781 446.53125 C 524.601562 447.585938 524.160156 448.640625 523.71875 449.699219 C 523.214844 450.898438 522.710938 452.097656 522.203125 453.296875 C 521.671875 454.554688 521.144531 455.8125 520.617188 457.070312 C 520.589844 457.136719 520.5625 457.203125 520.535156 457.273438 C 520.484375 457.394531 520.433594 457.519531 520.378906 457.640625 C 520.238281 457.980469 520.09375 458.320312 519.949219 458.65625 C 519.746094 458.65625 519.542969 458.65625 519.335938 458.65625 C 518.996094 458.019531 518.71875 457.359375 518.433594 456.695312 C 518.347656 456.488281 518.257812 456.28125 518.167969 456.070312 C 518.039062 455.765625 517.90625 455.457031 517.777344 455.152344 C 517.402344 454.273438 517.023438 453.394531 516.648438 452.515625 C 516.609375 452.421875 516.570312 452.332031 516.527344 452.234375 C 515.988281 450.976562 515.445312 449.714844 514.902344 448.457031 C 514.382812 447.253906 513.867188 446.050781 513.351562 444.847656 C 512.757812 443.464844 512.164062 442.082031 511.566406 440.699219 C 510.964844 439.300781 510.359375 437.898438 509.761719 436.5 C 509.722656 436.414062 509.6875 436.328125 509.648438 436.238281 C 509.199219 435.191406 508.753906 434.144531 508.308594 433.097656 C 508.257812 432.980469 508.210938 432.863281 508.160156 432.746094 C 508.039062 432.460938 507.917969 432.179688 507.800781 431.894531 C 507.796875 434.683594 507.796875 437.476562 507.796875 440.265625 C 507.796875 440.597656 507.796875 440.925781 507.792969 441.257812 C 507.792969 441.324219 507.792969 441.386719 507.792969 441.457031 C 507.792969 442.519531 507.792969 443.578125 507.792969 444.640625 C 507.792969 445.730469 507.792969 446.820312 507.792969 447.914062 C 507.792969 448.585938 507.792969 449.257812 507.789062 449.929688 C 507.789062 450.390625 507.789062 450.851562 507.789062 451.3125 C 507.789062 451.578125 507.789062 451.847656 507.789062 452.113281 C 507.664062 454.597656 507.664062 454.597656 508.765625 456.71875 C 509.726562 457.578125 510.878906 457.632812 512.105469 457.734375 C 512.105469 458.039062 512.105469 458.34375 512.105469 458.65625 C 508.703125 458.65625 505.304688 458.65625 501.800781 458.65625 C 501.800781 458.351562 501.800781 458.046875 501.800781 457.734375 C 501.898438 457.726562 502 457.722656 502.101562 457.714844 C 503.207031 457.628906 504.382812 457.464844 505.160156 456.585938 C 505.71875 455.816406 505.933594 454.980469 505.921875 454.046875 C 505.925781 453.953125 505.925781 453.855469 505.925781 453.757812 C 505.925781 453.496094 505.925781 453.238281 505.921875 452.976562 C 505.921875 452.691406 505.921875 452.410156 505.921875 452.128906 C 505.925781 451.574219 505.921875 451.023438 505.921875 450.472656 C 505.917969 449.828125 505.917969 449.183594 505.917969 448.539062 C 505.917969 447.390625 505.917969 446.242188 505.914062 445.089844 C 505.910156 443.976562 505.910156 442.863281 505.910156 441.75 C 505.910156 441.644531 505.910156 441.644531 505.910156 441.542969 C 505.910156 441.472656 505.910156 441.40625 505.910156 441.332031 C 505.910156 441.195312 505.910156 441.058594 505.910156 440.917969 C 505.910156 440.816406 505.910156 440.816406 505.910156 440.714844 C 505.910156 439.648438 505.90625 438.585938 505.90625 437.523438 C 505.90625 437.136719 505.90625 436.753906 505.90625 436.367188 C 505.902344 435.757812 505.902344 435.148438 505.902344 434.539062 C 505.902344 434.257812 505.898438 433.980469 505.898438 433.703125 C 505.898438 433.398438 505.898438 433.097656 505.898438 432.792969 C 505.898438 432.707031 505.898438 432.621094 505.898438 432.53125 C 505.894531 431.738281 505.875 430.984375 505.300781 430.390625 C 504.34375 429.5 503.027344 429.554688 501.800781 429.511719 C 501.800781 429.230469 501.800781 428.953125 501.800781 428.664062 Z M 501.800781 428.664062 "/>
<path style=" stroke:none;fill-rule:nonzero;fill:rgb(87.058824%,62.352943%,16.078432%);fill-opacity:1;" d="M 356.144531 428.664062 C 360.203125 428.664062 364.265625 428.664062 368.449219 428.664062 C 368.792969 429.398438 369.125 430.132812 369.433594 430.878906 C 369.523438 431.089844 369.609375 431.300781 369.699219 431.511719 C 369.722656 431.570312 369.742188 431.625 369.769531 431.679688 C 370.050781 432.359375 370.339844 433.03125 370.628906 433.707031 C 371.167969 434.953125 371.699219 436.203125 372.230469 437.449219 C 372.269531 437.539062 372.304688 437.625 372.34375 437.714844 C 372.535156 438.160156 372.722656 438.605469 372.914062 439.050781 C 373.136719 439.578125 373.359375 440.101562 373.582031 440.625 C 373.621094 440.710938 373.65625 440.796875 373.695312 440.886719 C 373.875 441.316406 374.058594 441.742188 374.242188 442.171875 C 374.589844 442.988281 374.9375 443.800781 375.28125 444.617188 C 375.425781 444.957031 375.570312 445.296875 375.714844 445.636719 C 375.8125 445.871094 375.914062 446.101562 376.011719 446.335938 C 376.121094 446.59375 376.226562 446.847656 376.335938 447.105469 C 376.371094 447.183594 376.402344 447.257812 376.433594 447.335938 C 376.464844 447.40625 376.496094 447.476562 376.527344 447.550781 C 376.550781 447.609375 376.578125 447.671875 376.601562 447.734375 C 376.679688 447.910156 376.679688 447.910156 376.832031 448.121094 C 376.875 448.015625 376.875 448.015625 376.917969 447.910156 C 377.480469 446.507812 378.054688 445.105469 378.632812 443.707031 C 379.058594 442.6875 379.480469 441.667969 379.898438 440.648438 C 380.347656 439.550781 380.800781 438.453125 381.253906 437.355469 C 381.726562 436.207031 382.203125 435.058594 382.671875 433.90625 C 383.179688 432.667969 383.691406 431.425781 384.203125 430.1875 C 384.234375 430.113281 384.265625 430.042969 384.296875 429.964844 C 384.351562 429.828125 384.410156 429.691406 384.464844 429.554688 C 384.492188 429.496094 384.515625 429.433594 384.542969 429.371094 C 384.566406 429.316406 384.585938 429.265625 384.609375 429.210938 C 384.683594 429.027344 384.757812 428.847656 384.828125 428.664062 C 388.890625 428.664062 392.949219 428.664062 397.132812 428.664062 C 397.132812 428.945312 397.132812 429.222656 397.132812 429.511719 C 397.035156 429.511719 396.9375 429.515625 396.835938 429.519531 C 395.15625 429.5625 395.15625 429.5625 393.691406 430.304688 C 392.90625 431.242188 392.96875 432.4375 392.96875 433.605469 C 392.96875 433.695312 392.96875 433.785156 392.96875 433.875 C 392.96875 434.171875 392.96875 434.46875 392.96875 434.765625 C 392.96875 434.976562 392.96875 435.191406 392.96875 435.40625 C 392.96875 435.921875 392.96875 436.441406 392.96875 436.960938 C 392.96875 437.382812 392.96875 437.804688 392.96875 438.226562 C 392.96875 439.425781 392.964844 440.625 392.964844 441.824219 C 392.964844 441.886719 392.964844 441.953125 392.964844 442.019531 C 392.964844 442.082031 392.964844 442.148438 392.964844 442.214844 C 392.964844 443.261719 392.964844 444.304688 392.964844 445.351562 C 392.964844 446.425781 392.964844 447.503906 392.964844 448.582031 C 392.964844 449.183594 392.964844 449.785156 392.960938 450.390625 C 392.960938 450.902344 392.960938 451.417969 392.960938 451.929688 C 392.960938 452.191406 392.960938 452.453125 392.960938 452.714844 C 392.960938 453.632812 392.960938 454.542969 393.042969 455.457031 C 393.050781 455.519531 393.054688 455.578125 393.0625 455.644531 C 393.128906 456.277344 393.382812 456.65625 393.871094 457.066406 C 394.589844 457.625 395.441406 457.667969 396.316406 457.699219 C 396.394531 457.703125 396.472656 457.707031 396.554688 457.710938 C 396.746094 457.71875 396.941406 457.726562 397.132812 457.734375 C 397.132812 458.039062 397.132812 458.34375 397.132812 458.65625 C 391.957031 458.65625 386.78125 458.65625 381.445312 458.65625 C 381.445312 458.351562 381.445312 458.046875 381.445312 457.734375 C 381.554688 457.730469 381.667969 457.730469 381.78125 457.726562 C 383.449219 457.703125 383.449219 457.703125 384.90625 456.964844 C 385.695312 455.984375 385.609375 454.707031 385.605469 453.511719 C 385.609375 453.417969 385.609375 453.324219 385.609375 453.226562 C 385.609375 452.96875 385.609375 452.710938 385.605469 452.453125 C 385.605469 452.175781 385.605469 451.898438 385.605469 451.621094 C 385.605469 451.136719 385.605469 450.65625 385.605469 450.175781 C 385.605469 449.480469 385.605469 448.78125 385.605469 448.085938 C 385.605469 446.957031 385.605469 445.828125 385.605469 444.699219 C 385.601562 443.601562 385.601562 442.503906 385.601562 441.40625 C 385.601562 441.339844 385.601562 441.273438 385.601562 441.203125 C 385.601562 440.863281 385.601562 440.523438 385.601562 440.183594 C 385.601562 437.367188 385.601562 434.554688 385.597656 431.742188 C 385.402344 432.203125 385.207031 432.664062 385.011719 433.128906 C 384.945312 433.285156 384.878906 433.441406 384.8125 433.597656 C 384.355469 434.683594 383.898438 435.769531 383.445312 436.855469 C 383.382812 437.003906 383.320312 437.152344 383.257812 437.300781 C 383.230469 437.367188 383.203125 437.433594 383.175781 437.5 C 382.761719 438.488281 382.347656 439.472656 381.929688 440.457031 C 381.484375 441.511719 381.039062 442.566406 380.597656 443.621094 C 380.097656 444.824219 379.589844 446.023438 379.085938 447.222656 C 378.609375 448.347656 378.136719 449.46875 377.667969 450.59375 C 377.222656 451.660156 376.777344 452.722656 376.328125 453.785156 C 375.640625 455.40625 374.964844 457.03125 374.292969 458.65625 C 374.089844 458.65625 373.886719 458.65625 373.679688 458.65625 C 373.273438 457.890625 372.9375 457.097656 372.597656 456.300781 C 372.492188 456.054688 372.386719 455.808594 372.28125 455.5625 C 372.132812 455.210938 371.980469 454.859375 371.832031 454.507812 C 371.453125 453.613281 371.070312 452.722656 370.6875 451.832031 C 370.628906 451.699219 370.628906 451.699219 370.570312 451.558594 C 369.972656 450.15625 369.363281 448.757812 368.757812 447.359375 C 368.160156 445.992188 367.574219 444.621094 366.992188 443.246094 C 366.40625 441.867188 365.8125 440.492188 365.214844 439.117188 C 364.507812 437.492188 363.808594 435.867188 363.113281 434.238281 C 362.902344 433.742188 362.6875 433.246094 362.476562 432.75 C 362.445312 432.675781 362.410156 432.601562 362.378906 432.523438 C 362.300781 432.339844 362.222656 432.15625 362.140625 431.972656 C 362.140625 434.8125 362.136719 437.65625 362.132812 440.5 C 362.132812 440.835938 362.132812 441.171875 362.132812 441.507812 C 362.132812 441.605469 362.132812 441.605469 362.132812 441.710938 C 362.132812 442.789062 362.132812 443.871094 362.128906 444.953125 C 362.128906 446.0625 362.128906 447.175781 362.128906 448.285156 C 362.128906 448.96875 362.128906 449.652344 362.125 450.339844 C 362.125 450.808594 362.125 451.277344 362.125 451.75 C 362.125 452.019531 362.125 452.289062 362.125 452.5625 C 362.125 452.855469 362.125 453.152344 362.125 453.445312 C 362.125 453.570312 362.125 453.570312 362.121094 453.699219 C 362.125 454.828125 362.234375 455.902344 363.066406 456.734375 C 364.050781 457.527344 365.226562 457.648438 366.449219 457.734375 C 366.449219 458.039062 366.449219 458.34375 366.449219 458.65625 C 363.046875 458.65625 359.648438 458.65625 356.144531 458.65625 C 356.144531 458.351562 356.144531 458.046875 356.144531 457.734375 C 356.242188 457.726562 356.34375 457.722656 356.445312 457.714844 C 357.542969 457.628906 358.742188 457.46875 359.507812 456.578125 C 359.925781 455.992188 360.230469 455.296875 360.230469 454.570312 C 360.230469 454.453125 360.230469 454.453125 360.230469 454.328125 C 360.230469 454.242188 360.230469 454.152344 360.230469 454.0625 C 360.230469 453.921875 360.230469 453.921875 360.230469 453.777344 C 360.230469 453.519531 360.230469 453.257812 360.230469 453 C 360.230469 452.71875 360.230469 452.441406 360.230469 452.160156 C 360.230469 451.609375 360.234375 451.0625 360.234375 450.511719 C 360.234375 450.066406 360.234375 449.621094 360.234375 449.171875 C 360.234375 447.90625 360.234375 446.640625 360.234375 445.375 C 360.234375 445.273438 360.234375 445.273438 360.234375 445.167969 C 360.234375 445.066406 360.234375 445.066406 360.234375 444.960938 C 360.234375 443.855469 360.234375 442.75 360.234375 441.640625 C 360.238281 440.503906 360.238281 439.367188 360.238281 438.230469 C 360.238281 437.59375 360.238281 436.957031 360.238281 436.316406 C 360.238281 435.773438 360.238281 435.230469 360.238281 434.6875 C 360.238281 434.410156 360.238281 434.132812 360.238281 433.855469 C 360.238281 433.554688 360.238281 433.253906 360.238281 432.953125 C 360.238281 432.867188 360.238281 432.78125 360.238281 432.691406 C 360.238281 431.867188 360.230469 430.980469 359.617188 430.367188 C 358.820312 429.6875 357.847656 429.589844 356.839844 429.542969 C 356.738281 429.539062 356.738281 429.539062 356.636719 429.535156 C 356.472656 429.527344 356.308594 429.519531 356.144531 429.511719 C 356.144531 429.230469 356.144531 428.953125 356.144531 428.664062 Z M 356.144531 428.664062 "/>
<path style=" stroke:none;fill-rule:nonzero;fill:rgb(85.882354%,61.176473%,16.470589%);fill-opacity:1;" d="M 414.296875 428.1875 C 414.382812 428.1875 414.472656 428.1875 414.5625 428.1875 C 414.75 428.183594 414.9375 428.183594 415.125 428.183594 C 415.402344 428.183594 415.683594 428.179688 415.960938 428.179688 C 417.464844 428.171875 418.953125 428.269531 420.410156 428.640625 C 420.492188 428.660156 420.570312 428.679688 420.652344 428.699219 C 424.429688 429.675781 427.515625 432.191406 429.515625 435.515625 C 431.640625 439.144531 432.058594 443.8125 431.023438 447.851562 C 430.292969 450.53125 428.980469 452.894531 427.050781 454.890625 C 427.011719 454.929688 426.972656 454.972656 426.929688 455.011719 C 424.136719 457.945312 420.195312 459.246094 416.207031 459.347656 C 411.710938 459.417969 407.570312 458.238281 404.238281 455.144531 C 403.980469 454.894531 403.746094 454.628906 403.515625 454.351562 C 403.457031 454.285156 403.398438 454.214844 403.339844 454.148438 C 400.859375 451.261719 399.636719 447.5625 399.648438 443.78125 C 399.648438 443.570312 399.644531 443.359375 399.644531 443.148438 C 399.640625 441.902344 399.773438 440.671875 400.074219 439.460938 C 400.089844 439.394531 400.109375 439.328125 400.125 439.261719 C 400.761719 436.757812 402.046875 434.597656 403.824219 432.742188 C 403.863281 432.699219 403.90625 432.65625 403.945312 432.613281 C 404.910156 431.589844 405.988281 430.742188 407.207031 430.046875 C 407.253906 430.023438 407.296875 430 407.339844 429.972656 C 409.453125 428.761719 411.867188 428.195312 414.296875 428.1875 Z M 410.941406 431.664062 C 407.929688 434.6875 407.65625 439.726562 407.652344 443.746094 C 407.65625 447.683594 408.03125 452.277344 410.667969 455.425781 C 410.730469 455.503906 410.789062 455.578125 410.851562 455.660156 C 411.835938 456.785156 413.351562 457.457031 414.820312 457.582031 C 416.792969 457.683594 418.460938 457.296875 420 456.003906 C 422.605469 453.582031 423.246094 449.480469 423.433594 446.121094 C 423.445312 445.769531 423.449219 445.417969 423.449219 445.066406 C 423.453125 444.972656 423.453125 444.875 423.453125 444.773438 C 423.453125 444.460938 423.453125 444.152344 423.453125 443.839844 C 423.453125 443.785156 423.453125 443.734375 423.453125 443.679688 C 423.457031 441.996094 423.421875 440.332031 423.203125 438.664062 C 423.191406 438.574219 423.183594 438.488281 423.171875 438.402344 C 422.804688 435.683594 421.859375 432.628906 419.589844 430.894531 C 416.804688 429.046875 413.335938 429.347656 410.941406 431.664062 Z M 410.941406 431.664062 "/>
<path style=" stroke:none;fill-rule:nonzero;fill:rgb(85.490197%,60.784316%,16.078432%);fill-opacity:1;" d="M 447.273438 428.203125 C 447.328125 428.214844 447.378906 428.226562 447.429688 428.242188 C 448.242188 428.4375 448.984375 428.75 449.738281 429.105469 C 450.105469 429.273438 450.476562 429.433594 450.851562 429.585938 C 450.90625 429.609375 450.960938 429.632812 451.015625 429.65625 C 451.570312 429.882812 452.132812 430.027344 452.722656 429.816406 C 453.261719 429.324219 453.410156 428.660156 453.582031 427.972656 C 453.835938 427.972656 454.089844 427.972656 454.351562 427.972656 C 454.597656 436.269531 454.597656 436.269531 454.582031 437.96875 C 454.25 437.96875 453.921875 437.96875 453.582031 437.96875 C 453.554688 437.855469 453.527344 437.742188 453.496094 437.625 C 452.8125 434.878906 451.5 432.40625 449.011719 430.898438 C 447.214844 429.847656 445.3125 429.449219 443.277344 429.972656 C 442.164062 430.335938 441.257812 430.980469 440.679688 432.007812 C 440.25 432.867188 440.191406 433.734375 440.429688 434.664062 C 440.683594 435.34375 441.078125 435.84375 441.585938 436.355469 C 441.625 436.402344 441.667969 436.449219 441.710938 436.496094 C 442.613281 437.476562 443.882812 438.054688 445.046875 438.664062 C 445.179688 438.730469 445.179688 438.730469 445.316406 438.804688 C 446.136719 439.234375 446.957031 439.660156 447.789062 440.066406 C 449.492188 440.898438 451.144531 441.820312 452.660156 442.96875 C 452.734375 443.023438 452.808594 443.082031 452.886719 443.140625 C 454.785156 444.628906 456.011719 446.480469 456.398438 448.878906 C 456.660156 451.269531 456.140625 453.5625 454.648438 455.464844 C 452.710938 457.726562 450.304688 459.046875 447.328125 459.324219 C 444.8125 459.515625 442.574219 458.976562 440.253906 458.050781 C 439.027344 457.554688 439.027344 457.554688 437.753906 457.746094 C 437 458.128906 436.664062 458.613281 436.277344 459.347656 C 435.972656 459.347656 435.667969 459.347656 435.355469 459.347656 C 435.355469 455.59375 435.355469 451.835938 435.355469 447.96875 C 435.660156 447.96875 435.964844 447.96875 436.277344 447.96875 C 436.332031 448.175781 436.332031 448.175781 436.386719 448.390625 C 437.007812 450.773438 437.871094 452.917969 439.585938 454.734375 C 439.640625 454.796875 439.695312 454.859375 439.753906 454.921875 C 441.3125 456.578125 443.472656 457.507812 445.714844 457.679688 C 447.285156 457.722656 448.867188 457.269531 450.023438 456.175781 C 450.855469 455.296875 451.253906 454.3125 451.238281 453.105469 C 451.179688 451.761719 450.464844 450.695312 449.511719 449.789062 C 448.035156 448.480469 446.125 447.652344 444.371094 446.785156 C 443.320312 446.265625 442.285156 445.726562 441.277344 445.121094 C 441.21875 445.089844 441.164062 445.054688 441.105469 445.019531 C 439.386719 444 437.75 442.746094 436.664062 441.046875 C 436.585938 440.929688 436.585938 440.929688 436.507812 440.808594 C 435.367188 438.929688 435.128906 436.714844 435.570312 434.582031 C 436.09375 432.4375 437.5 430.53125 439.367188 429.347656 C 440.214844 428.847656 441.089844 428.4375 442.046875 428.203125 C 442.183594 428.167969 442.183594 428.167969 442.328125 428.132812 C 443.867188 427.796875 445.75 427.800781 447.273438 428.203125 Z M 447.273438 428.203125 "/>
<path style=" stroke:none;fill-rule:nonzero;fill:rgb(85.490197%,60.784316%,16.078432%);fill-opacity:1;" d="M 472.421875 428.203125 C 472.472656 428.214844 472.523438 428.226562 472.578125 428.242188 C 473.390625 428.4375 474.128906 428.75 474.886719 429.105469 C 475.253906 429.273438 475.625 429.433594 476 429.585938 C 476.054688 429.609375 476.105469 429.632812 476.164062 429.65625 C 476.714844 429.882812 477.292969 430.035156 477.875 429.808594 C 478.265625 429.464844 478.417969 429.042969 478.554688 428.558594 C 478.582031 428.472656 478.582031 428.472656 478.609375 428.386719 C 478.648438 428.25 478.6875 428.109375 478.730469 427.972656 C 478.984375 427.972656 479.238281 427.972656 479.5 427.972656 C 479.527344 429.09375 479.558594 430.214844 479.589844 431.339844 C 479.601562 431.859375 479.617188 432.378906 479.628906 432.902344 C 479.644531 433.40625 479.65625 433.910156 479.671875 434.410156 C 479.675781 434.601562 479.679688 434.792969 479.6875 434.984375 C 479.714844 435.980469 479.734375 436.972656 479.730469 437.96875 C 479.398438 437.96875 479.070312 437.96875 478.730469 437.96875 C 478.683594 437.777344 478.683594 437.777344 478.632812 437.582031 C 478.132812 435.613281 477.414062 433.941406 476.039062 432.433594 C 475.988281 432.378906 475.9375 432.320312 475.886719 432.265625 C 474.507812 430.789062 472.511719 429.835938 470.5 429.730469 C 468.964844 429.6875 467.617188 430.042969 466.480469 431.109375 C 465.726562 431.902344 465.425781 432.8125 465.425781 433.894531 C 465.496094 434.964844 466.160156 435.898438 466.925781 436.613281 C 467.839844 437.386719 468.867188 437.992188 469.929688 438.542969 C 470.042969 438.601562 470.152344 438.660156 470.265625 438.71875 C 471.0625 439.136719 471.863281 439.535156 472.667969 439.933594 C 474.984375 441.078125 477.230469 442.332031 479.113281 444.121094 C 479.199219 444.199219 479.199219 444.199219 479.285156 444.277344 C 480.726562 445.632812 481.519531 447.714844 481.589844 449.664062 C 481.652344 452.253906 480.816406 454.429688 479.035156 456.304688 C 477.011719 458.375 474.3125 459.3125 471.453125 459.371094 C 469.363281 459.390625 467.566406 458.875 465.632812 458.128906 C 464.292969 457.578125 464.292969 457.578125 462.902344 457.722656 C 462.179688 458.097656 461.78125 458.636719 461.425781 459.347656 C 461.121094 459.347656 460.816406 459.347656 460.503906 459.347656 C 460.503906 455.59375 460.503906 451.835938 460.503906 447.96875 C 460.808594 447.96875 461.113281 447.96875 461.425781 447.96875 C 461.460938 448.097656 461.492188 448.226562 461.527344 448.363281 C 461.78125 449.328125 462.03125 450.28125 462.425781 451.199219 C 462.449219 451.25 462.472656 451.304688 462.496094 451.359375 C 462.972656 452.457031 463.570312 453.433594 464.347656 454.351562 C 464.394531 454.410156 464.445312 454.46875 464.492188 454.527344 C 465.992188 456.292969 468.214844 457.417969 470.5 457.65625 C 472.101562 457.773438 473.726562 457.402344 474.976562 456.363281 C 475.703125 455.679688 476.296875 454.695312 476.363281 453.683594 C 476.398438 452.332031 476.003906 451.214844 475.066406 450.222656 C 473.417969 448.539062 471.125 447.578125 469.042969 446.550781 C 466.945312 445.511719 464.90625 444.347656 463.195312 442.738281 C 463.144531 442.691406 463.09375 442.644531 463.039062 442.597656 C 461.460938 441.117188 460.578125 439.023438 460.492188 436.878906 C 460.457031 434.75 461.070312 432.847656 462.425781 431.203125 C 462.484375 431.132812 462.542969 431.058594 462.601562 430.988281 C 463.796875 429.605469 465.4375 428.660156 467.195312 428.203125 C 467.28125 428.179688 467.367188 428.15625 467.457031 428.132812 C 468.996094 427.792969 470.898438 427.800781 472.421875 428.203125 Z M 472.421875 428.203125 "/>
<path style=" stroke:none;fill-rule:nonzero;fill:rgb(87.058824%,61.56863%,14.901961%);fill-opacity:1;" d="M 484.1875 428.664062 C 489.390625 428.664062 494.59375 428.664062 499.953125 428.664062 C 499.953125 428.945312 499.953125 429.222656 499.953125 429.511719 C 499.851562 429.511719 499.746094 429.515625 499.640625 429.519531 C 497.859375 429.554688 497.859375 429.554688 496.355469 430.414062 C 495.828125 431.199219 495.789062 431.917969 495.792969 432.84375 C 495.789062 432.9375 495.789062 433.035156 495.789062 433.132812 C 495.789062 433.394531 495.789062 433.660156 495.789062 433.925781 C 495.789062 434.210938 495.789062 434.496094 495.789062 434.78125 C 495.789062 435.402344 495.785156 436.027344 495.785156 436.648438 C 495.785156 437.039062 495.785156 437.429688 495.785156 437.820312 C 495.785156 438.898438 495.785156 439.976562 495.785156 441.058594 C 495.785156 441.125 495.785156 441.195312 495.785156 441.265625 C 495.785156 441.335938 495.785156 441.40625 495.785156 441.476562 C 495.785156 441.617188 495.785156 441.757812 495.785156 441.898438 C 495.785156 441.96875 495.785156 442.035156 495.785156 442.109375 C 495.78125 443.234375 495.78125 444.359375 495.78125 445.488281 C 495.777344 446.644531 495.777344 447.804688 495.777344 448.960938 C 495.777344 449.609375 495.777344 450.257812 495.773438 450.910156 C 495.773438 451.460938 495.773438 452.015625 495.773438 452.570312 C 495.773438 452.851562 495.773438 453.132812 495.773438 453.414062 C 495.773438 453.722656 495.773438 454.027344 495.773438 454.335938 C 495.773438 454.421875 495.773438 454.507812 495.773438 454.601562 C 495.777344 455.328125 495.804688 456.171875 496.257812 456.773438 C 497.039062 457.542969 498.070312 457.675781 499.113281 457.707031 C 499.195312 457.707031 499.277344 457.710938 499.359375 457.714844 C 499.558594 457.722656 499.757812 457.726562 499.953125 457.734375 C 499.953125 458.039062 499.953125 458.34375 499.953125 458.65625 C 494.753906 458.65625 489.550781 458.65625 484.1875 458.65625 C 484.1875 458.351562 484.1875 458.046875 484.1875 457.734375 C 484.304688 457.730469 484.421875 457.730469 484.542969 457.726562 C 486.195312 457.71875 486.195312 457.71875 487.628906 456.996094 C 488.375 456.167969 488.367188 455.113281 488.363281 454.054688 C 488.363281 453.914062 488.363281 453.914062 488.363281 453.769531 C 488.363281 453.515625 488.363281 453.257812 488.363281 453.003906 C 488.363281 452.726562 488.363281 452.449219 488.363281 452.171875 C 488.363281 451.628906 488.363281 451.085938 488.363281 450.542969 C 488.363281 450.105469 488.363281 449.664062 488.363281 449.222656 C 488.363281 449.160156 488.363281 449.097656 488.363281 449.03125 C 488.363281 448.902344 488.363281 448.777344 488.363281 448.648438 C 488.363281 447.453125 488.363281 446.253906 488.363281 445.058594 C 488.363281 444.03125 488.363281 443.007812 488.363281 441.984375 C 488.363281 440.789062 488.363281 439.597656 488.363281 438.40625 C 488.363281 438.277344 488.363281 438.148438 488.363281 438.023438 C 488.363281 437.960938 488.363281 437.898438 488.363281 437.832031 C 488.363281 437.394531 488.363281 436.953125 488.363281 436.511719 C 488.363281 435.976562 488.363281 435.441406 488.363281 434.902344 C 488.363281 434.628906 488.363281 434.355469 488.363281 434.082031 C 488.363281 433.785156 488.363281 433.488281 488.363281 433.191406 C 488.363281 433.0625 488.363281 433.0625 488.363281 432.933594 C 488.367188 431.542969 488.367188 431.542969 487.738281 430.363281 C 486.9375 429.675781 485.941406 429.589844 484.925781 429.542969 C 484.855469 429.539062 484.78125 429.539062 484.710938 429.535156 C 484.535156 429.527344 484.363281 429.519531 484.1875 429.511719 C 484.1875 429.230469 484.1875 428.953125 484.1875 428.664062 Z M 484.1875 428.664062 "/>
</g>
</svg>
